<?xml version="1.0" encoding="utf-8"?>
<!-- Generator: Adobe Illustrator 19.2.1, SVG Export Plug-In . SVG Version: 6.00 Build 0)  -->
<svg version="1.1" id="illustration" xmlns="http://www.w3.org/2000/svg" xmlns:xlink="http://www.w3.org/1999/xlink" x="0px"
	 y="0px" viewBox="0 0 1400 980" style="enable-background:new 0 0 1400 980;" xml:space="preserve">
<style type="text/css">
	.st0{fill:#151D38;}
	.st1{fill:#FCE2D8;}
	.st2{fill:#EDC062;}
	.st3{fill:#AEDEF8;}
	.st4{fill:#7DA6ED;}
	.st5{fill:#FFFFFF;}
	.st6{fill:#EFD2E6;}
	.st7{fill:#249A4B;}
</style>
<g>
	<path class="st0" d="M1121.2,611.182c-12.494,0.217-24.989,0.439-37.483,0.651c-27.88,0.474-55.761,0.946-83.641,1.412
		c-4.01,0.067-8.021,0.069-12.031,0.151c-1.822,0.037-1.908,0.182-1.005,1.697c1.957,3.284,3.975,6.531,5.965,9.795
		c4.708,7.723,9.409,15.45,14.126,23.167c1.063,1.74,1.089,1.724,2.818,0.572c6.925-4.615,15.464-2.372,19.224,5.05
		c0.877,1.731,0.877,1.731,2.771,0.886c6.01-2.683,12.809-0.798,16.312,4.522c3.544,5.382,2.649,12.224-2.196,16.793
		c-1.431,1.349-1.431,1.349-0.144,2.951c4.075,5.07,4.058,11.867-0.041,16.718c-3.972,4.7-10.709,5.861-16.26,2.796
		c-0.407-0.225-0.793-0.49-1.185-0.743c-0.57-0.368-1.032-0.321-1.365,0.323c-0.171,0.331-0.353,0.658-0.552,0.974
		c-3.447,5.462-9.668,7.702-15.534,5.598c-5.79-2.077-9.208-7.928-8.325-14.272c0.064-0.459,0.204-0.908,0.313-1.361
		c0.17-0.708-0.169-1.024-0.831-1.138c-0.643-0.11-1.284-0.241-1.917-0.396c-6.048-1.478-10.235-7.121-9.84-13.249
		c0.41-6.35,5.237-11.383,11.559-12.049c0.556-0.059,1.115-0.101,1.674-0.121c0.845-0.029,1.055-0.486,1.07-1.274
		c0.045-2.535-0.222-4.837-1.943-7.007c-2.486-3.133-4.582-6.576-6.845-9.886c-0.207-0.302-0.385-0.687-0.837-0.59
		c-0.323,0.069-0.28,0.404-0.331,0.661c-2.02,10.111-7.385,15.343-17.491,17.272c-3.85,0.735-7.614,0.486-11.362-0.423
		c-5.814-1.409-11.668-2.492-17.676-2.514c-0.948-0.004-1.927-0.035-2.474-0.969c-0.648-1.106,0.076-1.946,0.683-2.777
		c3.478-4.767,6.311-9.889,8.652-15.307c1.723-3.986,4.158-7.487,7.605-10.224c5.365-4.26,11.248-6.54,18.2-4.919
		c0.342,0.08,0.866,0.129,1.054-0.059c0.253-0.253-0.025-0.678-0.233-0.983c-1.893-2.773-3.831-5.516-5.66-8.33
		c-0.705-1.084-1.654-1.013-2.683-0.994c-6.9,0.124-13.799,0.244-20.699,0.359c-6.621,0.11-13.242,0.202-19.862,0.326
		c-2.286,0.043-2.304,0.074-2.458,2.238c-0.243,3.418-1.648,6.266-4.118,8.618c-1.601,1.524-1.593,1.531-0.295,3.148
		c4.04,5.03,4.004,11.959-0.089,16.721c-4.088,4.758-10.886,5.822-16.525,2.586c-1.724-0.989-1.725-0.99-2.795,0.717
		c-2.769,4.419-6.802,6.666-11.968,6.33c-5.038-0.328-8.775-2.951-10.927-7.574c-1.126-2.419-1.413-4.984-0.914-7.65
		c0.391-2.089,0.316-2.103-1.659-2.478c-8.963-1.702-13.402-11.314-8.884-19.241c0.184-0.324,0.403-0.628,0.592-0.949
		c0.847-1.439,0.813-1.57-0.724-1.546c-5.874,0.089-11.747,0.225-17.621,0.332c-0.875,0.016-1.603,0.278-2.283,0.863
		c-9.094,7.823-19.908,12.338-31.128,16.007c-13.147,4.299-26.67,6.983-40.326,9.042c-10.051,1.515-20.141,2.701-30.277,3.475
		c-0.093,0.007-0.186,0.015-0.279,0.026c-2.463,0.287-2.531,0.357-2.096,2.72c0.489,2.658,1.018,5.308,1.517,7.964
		c2.028,10.808,4.045,21.618,6.083,32.424c0.355,1.884,0.439,1.944,1.935,0.916c3.194-2.195,6.705-2.782,10.406-1.977
		c1.401,0.305,1.829,0.005,1.966-1.34c0.093-0.912,0.403-1.822,0.735-2.687c2.053-5.346,7.471-8.727,13.026-8.17
		c6.097,0.612,10.66,4.764,11.709,10.655c0.373,2.095,0.377,2.129,2.544,1.857c4.918-0.616,9.063,0.822,12.183,4.719
		c4.974,6.214,3.132,15.238-3.867,19.3c-1.884,1.094-1.884,1.094-1.005,2.99c2.775,5.988,0.999,12.789-4.278,16.385
		c-5.297,3.609-12.187,2.809-16.828-1.955c-1.361-1.397-1.361-1.398-2.687-0.202c-4.871,4.393-10.884,4.868-16.46,1.319
		c-0.436-0.278-0.856-1.002-1.39-0.6c-0.452,0.341-0.128,1.063-0.031,1.595c1.18,6.416,2.383,12.828,3.578,19.241
		c0.358,1.924,0.685,3.854,1.074,5.772c0.169,0.832,0.462,1.508,1.376,0.482c4.082-4.576,9.415-6.476,15.327-7.208
		c3.414-0.423,6.735,0.083,9.943,1.057c5.913,1.796,11.915,3.016,18.059,3.628c2.609,0.26,3.181,1.464,1.572,3.447
		c-4.08,5.027-7.317,10.557-10.276,16.292c-2.75,5.329-7.033,9.142-12.493,11.563c-5.487,2.433-11,2.626-16.448-0.227
		c-0.453-0.237-0.944-0.814-1.455-0.406c-0.349,0.279-0.105,0.879-0.02,1.335c1.297,6.963,2.592,13.926,3.892,20.888
		c0.068,0.366,0.203,0.72,0.262,1.087c0.19,1.186,0.737,1.066,1.493,0.458c1.934-1.557,4.132-2.53,6.605-2.8
		c8.73-0.954,15.537,6.186,14.313,14.994c-0.285,2.05-0.285,2.05,1.801,2.587c6.617,1.703,10.578,7.184,10.036,13.889
		c-0.5,6.181-5.486,11.022-12.021,11.548c-1.315,0.106-1.979,0.221-1.84,1.88c0.571,6.802-2.678,11.581-9.202,13.879
		c-0.343,0.121-0.653,0.337-0.978,0.509c-1.866,0-3.732,0-5.597,0c-0.501-0.807-1.45-0.748-2.183-1.087
		c-2.631-1.217-4.657-3.056-6.082-5.572c-1.156-2.041-1.16-2.039-3.152-1.118c-8.319,3.847-17.525-1.273-18.478-10.373
		c-0.469-4.479,1.18-8.216,4.582-11.18c1.451-1.265,1.441-1.285,0.26-2.71c-3.476-4.198-4.286-8.886-2.092-13.848
		c2.209-4.997,6.351-7.378,11.735-7.687c2.124-0.122,2.161-0.111,1.771-1.879c-4.911-22.294-9.831-44.586-14.772-66.873
		c-0.125-0.563,0.158-1.534-0.701-1.583c-0.686-0.039-0.869,0.862-1.184,1.401c-5.182,8.85-10.355,17.706-15.523,26.565
		c-1.276,2.187-1.26,2.18,1.145,2.978c4.839,1.606,7.913,4.886,8.821,9.905c0.922,5.097-0.691,9.385-4.776,12.663
		c-0.878,0.705-1.844,1.285-2.907,1.65c-1.177,0.404-1.285,0.996-0.739,2.082c1.486,2.957,1.719,6.103,0.788,9.251
		c-1.412,4.779-4.63,7.852-9.471,8.952c-4.826,1.097-9.034-0.271-12.467-3.88c-0.32-0.337-0.627-0.698-0.875-1.089
		c-0.547-0.86-1.069-0.817-1.768-0.134c-1.632,1.595-3.567,2.679-5.801,3.206c-5.108,1.207-9.482-0.183-12.883-4.079
		c-3.334-3.819-4.051-8.277-2.289-13.075c0.192-0.523,0.368-1.084,0.695-1.52c0.98-1.306,0.419-1.913-0.861-2.478
		c-0.922-0.407-1.786-1.021-2.561-1.677c-4.428-3.753-5.776-10-3.341-15.26c2.471-5.338,8.054-8.197,14.113-7.221
		c0.367,0.059,0.751,0.106,1.086,0.251c1.396,0.603,1.86,0.139,2.24-1.336c1.673-6.504,6.969-10.488,13.299-10.06
		c4.716,0.319,8.256,2.628,10.621,6.742c0.901,1.568,0.984,1.57,1.761,0.055c6.422-12.524,12.804-25.07,19.269-37.573
		c0.686-1.327,0.452-2.518,0.178-3.769c-2.267-10.378-4.559-20.75-6.842-31.124c-3.124-14.196-6.206-28.402-9.395-42.583
		c-0.861-3.831,0.027-3.46-4.273-3.269c-18.077,0.803-36.161,1.311-54.257,1.06c-19.024-0.263-38.03-0.91-56.996-2.553
		c-18.129-1.57-36.142-3.859-53.889-7.967c-11.739-2.718-23.24-6.156-34.046-11.616c-1.497-0.756-3.069-1.434-4.406-2.42
		c-2.453-1.808-5.077-2.288-8.099-2.22c-18.365,0.413-36.734,0.663-55.102,0.971c-0.466,0.008-0.934,0.025-1.396,0.081
		c-0.258,0.031-0.602,0.074-0.738,0.245c-0.332,0.421,0.14,0.65,0.365,0.887c0.384,0.405,0.819,0.762,1.236,1.135
		c23.384,20.865,46.769,41.73,70.153,62.595c0.278,0.248,0.547,0.508,0.833,0.748c1.29,1.079,1.287,1.075,1.982-0.54
		c3.791-8.81,10.798-13.385,20.014-14.552c6.747-0.855,13.542-1.233,20.116-3.203c2.188-0.656,3.144,0.494,2.422,2.795
		c-1.286,4.095-2.489,8.206-3.156,12.453c-0.433,2.761-0.661,5.562-1.246,8.289c-1.61,7.512-5.731,13.251-12.48,17.03
		c-1.608,0.9-1.639,0.935-0.263,2.169c5.553,4.984,11.12,9.953,16.7,14.907c1.305,1.159,1.337,1.123,2.454-0.362
		c6.281-8.36,17.822-7.398,22.486,1.874c0.816,1.621,0.816,1.621,2.576,0.833c8.446-3.784,17.485,1.209,18.507,10.319
		c0.477,4.251-1.023,7.875-4.135,10.821c-1.528,1.447-1.525,1.45-0.167,3.16c6.214,7.826,2.166,18.903-7.624,20.902
		c-3.285,0.671-6.279-0.06-9.122-1.701c-1.662-0.96-1.669-0.947-2.679,0.641c-3.257,5.126-8.655,7.474-14.112,6.139
		c-6.755-1.652-10.915-7.939-9.802-14.813c0.349-2.159,0.35-2.162-1.734-2.625c-5.561-1.234-9.072-4.589-10.25-10.177
		c-1.17-5.548,1.321-10.826,6.316-13.762c1.949-1.146,1.968-1.17,0.189-2.571c-17.95-14.138-35.907-28.268-53.863-42.4
		c-0.293-0.231-0.604-0.44-0.889-0.68c-0.568-0.478-1.01-0.389-1.28,0.298c-0.91,2.31-2.324,4.247-4.283,5.769
		c-0.915,0.711-0.393,1.24,0.136,1.823c2.292,2.523,3.467,5.469,3.454,8.902c-0.038,9.633-10.101,15.803-18.709,11.45
		c-0.415-0.21-0.851-0.414-1.201-0.711c-1.071-0.911-1.663-0.638-2.309,0.577c-1.65,3.104-4.231,5.147-7.613,6.167
		c-8.938,2.696-17.883-4.915-16.507-14.053c0.398-2.641,0.398-2.641-2.246-3.298c-5.878-1.461-9.803-6.338-9.915-12.321
		c-0.11-5.835,3.628-10.915,9.228-12.591c1.181-0.353,2.381-0.473,3.592-0.462c1.115,0.01,1.503-0.492,1.387-1.545
		c-0.051-0.461-0.03-0.932-0.025-1.398c0.084-7.114,5.407-12.514,12.549-12.73c0.466-0.014,0.933,0.01,1.399,0.005
		c0.262-0.002,0.567,0.064,0.712-0.244c0.143-0.305-0.048-0.525-0.261-0.704c-0.5-0.42-1.005-0.833-1.518-1.237
		c-17.813-14.011-35.641-28.003-53.417-42.062c-1.486-1.175-2.934-1.707-4.816-1.674c-21.724,0.39-43.449,0.736-65.175,1.062
		c-19.675,0.296-39.351,0.545-59.027,0.836c-5.687,0.084-11.373,0.256-17.06,0.361c-2.591,0.048-2.628,0.018-2.698-2.539
		c-0.184-6.803-0.332-13.606-0.497-20.409c-0.027-1.107,0.174-2.252-0.506-3.259c0-6.53,0-13.06,0-19.591
		c11.47,0.132,22.941,0.259,34.411,0.399c11.378,0.139,22.756,0.293,34.133,0.438c23.502,0.301,47.003,0.605,70.505,0.883
		c0.969,0.011,2.28,0.573,2.831-0.364c0.449-0.765-0.572-1.656-1.015-2.438c-4.414-7.787-8.86-15.557-13.299-23.33
		c-0.324-0.567-0.659-1.126-0.995-1.686c-0.546-0.911-0.883-0.63-1.321,0.145c-4.12,7.299-10.648,10.067-18.72,9.797
		c-2.326-0.078-4.642-0.449-6.968-0.549c-2.982-0.128-5.96-0.015-8.939,0.31c-2.152,0.235-3.115-1.066-2.09-2.896
		c2.758-4.921,4.279-10.309,6.275-15.526c2.434-6.365,6.979-10.699,13.734-12.455c1.472-0.383,2.961-0.314,4.451-0.264
		c0.965,0.033,1.171-0.329,0.704-1.148c-2.078-3.645-4.178-7.278-6.218-10.944c-0.701-1.26-1.734-0.798-2.704-0.682
		c-4.846,0.579-8.777-1.078-11.877-4.802c-0.119-0.143-0.224-0.298-0.339-0.446c-1.121-1.437-1.138-1.46-2.68-0.319
		c-3.541,2.62-7.441,3.364-11.647,2.113c-7.872-2.342-11.524-11.314-7.588-18.514c0.223-0.408,0.437-0.842,0.748-1.179
		c0.933-1.01,0.78-1.592-0.458-2.301c-3.228-1.849-5.268-4.645-6.097-8.313c-2.145-9.491,6.598-17.855,15.971-15.26
		c0.27,0.075,0.538,0.155,0.805,0.237c1.927,0.591,1.927,0.591,2.675-1.289c3.248-8.164,12.61-11.157,19.583-6.219
		c3.221,2.28,5.033,5.42,5.387,9.384c0.222,2.486,0.246,2.483,2.688,2.463c6.362-0.054,11.509,3.884,12.903,9.871
		c1.501,6.448-1.786,12.579-8.089,15.09c-2.009,0.8-2.01,0.8-1.411,2.853c1.104,3.784,0.751,7.42-1.4,10.734
		c-0.793,1.221-0.693,2.058,0.036,3.226c4.543,7.277,9.002,14.607,13.51,21.906c1.076,1.743,1.146,1.761,2.69,0.575
		c8.213-6.304,16.4-12.641,24.62-18.936c0.981-0.751,1.403-1.556,1.306-2.832c-0.218-2.887,0.545-5.581,2.302-7.883
		c0.933-1.222,0.4-1.628-0.625-2.305c-5.319-3.512-7.471-9.089-5.802-14.747c2.059-6.979,9.334-10.765,16.459-8.564
		c2.065,0.638,2.065,0.638,2.855-1.38c2.166-5.535,7.615-9.032,13.158-8.445c6.045,0.641,10.532,4.766,11.659,10.746
		c0.137,0.729,0.25,1.482,0.224,2.219c-0.041,1.184,0.551,1.447,1.564,1.294c0.368-0.055,0.743-0.081,1.116-0.085
		c6.318-0.066,11.63,4.161,12.911,10.27c1.29,6.149-2.08,12.261-8.072,14.637c-0.26,0.103-0.513,0.257-0.783,0.296
		c-1.254,0.182-1.458,0.793-1.016,1.94c0.817,2.119,1.082,4.314,0.671,6.589c-0.977,5.408-4.125,9.006-9.352,10.39
		c-5.198,1.376-9.779-0.077-13.35-4.244c-0.423-0.493-0.749-1.069-1.149-1.583c-0.335-0.43-0.733-0.496-1.17-0.105
		c-0.277,0.248-0.57,0.482-0.872,0.7c-4.888,3.524-10.475,3.709-15.364,0.273c-1.334-0.937-2.072-0.967-3.301,0.111
		c-7.574,6.643-15.226,13.195-22.848,19.784c-1.63,1.409-1.755,1.206-0.563,3.145c6.007,9.771,12.002,19.549,18.013,29.318
		c1.036,1.683,3.964,2.567,6.136,1.914c0.608-0.183,0.656-0.563,0.39-1.051c-0.268-0.491-0.583-0.957-0.833-1.457
		c-4.035-8.048,0.767-17.329,9.66-18.678c0.369-0.056,0.737-0.114,1.108-0.159c1.99-0.244,2.103-0.249,1.978-2.29
		c-0.364-5.94,4.007-12.418,11.42-13.311c5.354-0.645,10.526,2.158,13.096,7.209c0.959,1.885,0.959,1.885,2.925,1.011
		c5.894-2.62,12.593-0.795,16.128,4.393c3.653,5.36,2.865,12.173-1.943,16.808c-1.544,1.488-1.554,1.497-0.221,3.153
		c0.885,1.1,1.678,2.275,2.093,3.612c0.363,1.17,0.949,1.632,2.195,1.617c3.17-0.038,6.342,0.026,9.512,0.108
		c1.138,0.029,1.891-0.252,2.398-1.4c3.498-7.917,9.635-13.387,16.815-17.834c2.057-1.274,4.218-2.386,6.365-3.508
		c0.984-0.514,1.281-0.959,0.299-1.785c-1.433-1.205-2.64-2.627-3.763-4.125c-0.566-0.754-0.549-1.275,0.332-1.776
		c5.335-3.027,12.722-4.66,18.76-0.294c0.451,0.327,0.901,0.7,1.411,0.893c1.083,0.411,1.884-0.24,1.593-1.338
		c-0.909-3.422-1.945-6.811-2.823-10.24c-0.337-1.314-1.365-1.406-2.313-1.656c-6.037-1.59-12.084-3.145-18.127-4.713
		c-2.165-0.562-4.331-1.118-6.491-1.695c-0.537-0.143-1.09-0.293-1.576-0.553c-0.744-0.398-1.009-1.092-0.786-1.901
		c0.222-0.804,0.825-1.322,1.638-1.254c0.918,0.077,1.823,0.355,2.723,0.588c7.036,1.822,14.08,3.613,21.096,5.512
		c1.82,0.492,2.535,0.919,1.747-1.882c-2.12-7.535-4.224-15.074-6.335-22.611c-0.226-0.808-0.479-1.609-0.671-2.425
		c-0.264-1.119-0.094-2.123,1.191-2.424c1.247-0.293,1.891,0.453,2.204,1.584c0.498,1.796,1.013,3.587,1.521,5.379
		c0.482,1.703,0.956,3.409,1.456,5.106c0.075,0.255,0.277,0.672,0.42,0.672c0.456,0.001,0.349-0.492,0.477-0.782
		c0.075-0.17,0.126-0.351,0.178-0.53c2.21-7.607,8.039-10.517,15.192-11.73c1.369-0.232,1.592,0.541,1.575,1.61
		c-0.137,8.991-3.638,15.041-12.512,17.618c-3.191,0.926-3.196,0.927-2.278,4.234c1.87,6.734,3.737,13.469,5.626,20.198
		c0.563,2.007,0.597,2.002,2.677,1.502c0.543-0.13,1.072-0.38,1.619-0.426c1.536-0.129,2.172-0.972,2.587-2.429
		c1.204-4.227,2.917-8.256,5.278-11.989c1.554-2.457,3.346-4.711,5.511-6.662c5.111-4.607,11.075-6.465,17.838-5.192
		c1.759,0.331,2.795-0.002,3.758-1.382c0.527-0.756,1.25-1.381,1.917-2.032c4.241-4.141,9.101-7.114,15.103-7.846
		c1.126-0.137,1.568-0.445,0.905-1.538c-0.241-0.398-0.435-0.824-0.652-1.237c-6.224-11.79-12.449-23.58-18.674-35.37
		c-0.087-0.165-0.185-0.324-0.275-0.487c-0.987-1.784-1.001-1.798-2.383-0.445c-1.338,1.31-2.76,2.507-4.334,3.524
		c-7.194,4.651-14.28,2.063-19.599-1.555c-0.909-0.619-0.601-1.19-0.031-1.814c5.937-6.506,12.682-9.047,21.032-5.112
		c0.866,0.408,1.941,1.633,2.595,0.959c0.574-0.592-0.582-1.767-1.036-2.639c-2.708-5.212-5.468-10.396-8.208-15.591
		c-0.304-0.577-0.644-1.143-0.874-1.749c-0.349-0.919-0.012-1.655,0.817-2.133c0.897-0.517,1.659-0.156,2.196,0.576
		c0.492,0.671,0.851,1.443,1.242,2.185c4.704,8.903,9.403,17.808,14.104,26.712c0.305,0.577,0.598,1.162,0.936,1.72
		c0.286,0.471,0.62,1.272,0.95,1.282c0.718,0.02,0.851-0.857,1.157-1.4c0.641-1.136,1.229-2.303,1.838-3.457
		c3.998-7.588,7.995-15.178,11.995-22.765c0.348-0.66,0.662-1.349,1.099-1.947c0.534-0.732,1.267-1.131,2.182-0.632
		c0.978,0.534,1.232,1.359,0.789,2.364c-0.3,0.681-0.665,1.335-1.013,1.994c-4.917,9.317-9.801,18.652-14.786,27.933
		c-0.874,1.628-1.005,2.902-0.078,4.603c4.368,8.024,8.601,16.122,12.839,24.216c0.682,1.303,1.477,2.109,3.018,2.554
		c6.484,1.873,11.308,6.144,14.881,11.651c1.691,2.606,3.277,3.37,6.252,2.624c3.511-0.881,3.11,0.01,3.112-3.811
		c0.015-28.826,0.006-57.652,0.012-86.477c0.001-2.798-0.061-5.602,0.098-8.393c0.689-12.04,9.099-22.749,20.602-26.36
		c2.326-0.73,4.714-1.103,7.13-1.346c1.936-0.195,2.011-0.205,1.894-2.143c-0.383-6.33-0.819-12.657-1.247-18.984
		c-0.71-10.514-1.441-21.027-2.139-31.542c-0.218-3.279-0.183-3.282-3.186-2.248c-8.885,3.058-16.273,0.416-21.178-7.574
		c-1.047-1.705-1.052-1.812,0.825-2.597c8.605-3.597,15.508-2.365,21.292,4.776c0.293,0.362,0.565,0.743,0.869,1.095
		c0.178,0.206,0.413,0.432,0.699,0.228c0.114-0.081,0.153-0.33,0.15-0.501c-0.017-0.839-0.039-1.679-0.097-2.516
		c-0.419-6.047-0.851-12.094-1.265-18.141c-0.038-0.551-0.059-1.125,0.054-1.658c0.147-0.69,0.633-1.121,1.372-1.199
		c0.841-0.089,1.453,0.234,1.792,1.019c0.342,0.792,0.292,1.644,0.349,2.479c0.732,10.699,1.463,21.399,2.195,32.098
		c0.032,0.465,0.042,0.933,0.098,1.395c0.082,0.683,0.516,0.712,0.974,0.405c0.618-0.415,1.189-0.9,1.776-1.362
		c7.33-5.769,14.658-11.539,21.988-17.308c0.586-0.461,1.175-0.921,1.773-1.367c0.917-0.684,1.911-0.948,2.73,0.035
		c0.828,0.994,0.387,1.916-0.502,2.661c-0.572,0.479-1.167,0.93-1.753,1.392c-8.135,6.405-16.235,12.855-24.435,19.175
		c-1.578,1.216-2.216,2.418-2.07,4.423c0.873,11.998,1.649,24.004,2.392,36.011c0.097,1.565,0.615,2.181,2.229,2.523
		c12.684,2.688,21.584,12.188,23.492,24.997c0.232,1.56,0.824,2.439,2.323,3.055c5.345,2.196,10.628,4.543,15.933,6.834
		c0.599,0.259,1.223,0.476,1.786,0.8c1.687,0.972,1.675,2.41-0.029,3.384c-0.563,0.322-1.188,0.538-1.787,0.797
		c-5.305,2.291-10.594,4.623-15.93,6.84c-1.301,0.541-1.873,1.204-1.851,2.661c0.077,5.13,0.048,10.261,0.017,15.392
		c-0.007,1.165,0.324,2.177,0.863,3.186c6.541,12.256,13.064,24.521,19.593,36.783c0.219,0.411,0.463,0.808,0.685,1.218
		c0.298,0.551,0.67,0.565,1.049,0.116c0.42-0.498,0.79-1.039,1.194-1.551c6.923-8.782,15.607-14.874,26.624-17.38
		c1.152-0.262,1.975-0.792,2.628-1.841c6.699-10.769,13.453-21.503,20.174-32.258c0.964-1.542,0.936-1.665-0.678-1.916
		c-4.008-0.623-7.199-2.512-9.372-5.945c-0.838-1.323-1.417-0.562-2.168-0.006c-3.885,2.878-8.118,3.636-12.671,1.875
		c-7.664-2.963-10.552-11.982-6.147-19.059c1.12-1.8,1.12-1.8-0.658-3.028c-5.267-3.635-7.184-10.008-4.751-15.795
		c2.374-5.647,8.188-8.727,14.369-7.606c0.458,0.083,0.932,0.145,1.358,0.317c0.985,0.398,1.628,0.263,1.764-0.926
		c0.031-0.275,0.125-0.545,0.211-0.81c2.073-6.372,7.685-9.976,14.244-9.151c6.095,0.767,10.734,6.014,11.08,12.54
		c0.02,0.372,0.02,0.748-0.009,1.119c-0.081,1.031,0.459,1.165,1.368,1.193c7.544,0.236,11.341,3.219,13.496,10.504
		c0.123,0.415,0.118,1.022,0.67,1.033c0.244,0.005,0.546-0.459,0.737-0.764c4.613-7.343,9.216-14.694,13.819-22.044
		c0.509-0.812,0.639-1.343-0.677-1.261c-9.59,0.596-16.797-3.695-21.972-11.385c-3.75-5.573-7.219-11.312-11.848-16.243
		c-1.536-1.637-1.077-3.006,1.094-3.326c6.773-1,13.225-3.087,19.656-5.345c4.883-1.714,9.903-1.633,14.876-0.225
		c6.391,1.81,11.158,5.466,13.393,11.953c0.143,0.414,0.373,1.078,0.629,1.111c0.447,0.058,0.679-0.532,0.926-0.927
		c3.912-6.242,7.843-12.473,11.733-18.729c0.952-1.532,0.894-1.568-0.865-1.758c-5.538-0.6-9.79-3.99-11.318-9.023
		c-1.576-5.19,0.125-10.518,4.477-14.025c1.644-1.325,1.644-1.325,0.434-3.145c-3.662-5.511-2.926-12.392,1.8-16.826
		c4.592-4.309,11.44-4.62,16.694-0.759c1.712,1.258,1.712,1.258,3.093-0.416c3.971-4.816,10.441-6.226,15.914-3.467
		c5.372,2.708,8.089,8.621,6.695,14.579c-0.106,0.453-0.201,0.915-0.368,1.347c-0.259,0.671-0.037,1.077,0.614,1.272
		c0.446,0.133,0.914,0.193,1.358,0.332c6.342,1.978,9.993,7.912,8.985,14.589c-0.928,6.146-6.362,10.666-12.824,10.659
		c-0.465,0-0.933-0.035-1.395-0.09c-0.853-0.101-1.161,0.287-1.171,1.112c-0.009,0.835-0.078,1.676-0.204,2.502
		c-1.475,9.672-12.513,14.248-20.402,8.46c-0.525-0.385-1.068-0.783-1.478-1.278c-0.947-1.142-1.504-0.647-2.022,0.37
		c-0.211,0.415-0.467,0.806-0.702,1.209c-11.181,19.17-22.366,38.338-33.527,57.519c-0.439,0.754-1.508,1.689-0.925,2.361
		c0.524,0.603,1.699-0.202,2.563-0.466c9.447-2.884,18.89-5.783,28.333-8.679c0.267-0.082,0.531-0.173,0.796-0.262
		c1.93-0.647,1.945-0.656,0.964-2.326c-0.76-1.295-1.38-2.634-1.698-4.114c-2.087-9.72,6.631-17.9,16.219-15.209
		c0.359,0.101,0.745,0.156,1.067,0.329c0.978,0.525,1.348-0.022,1.595-0.839c0.081-0.268,0.136-0.545,0.234-0.806
		c2.325-6.211,8.35-9.685,14.677-8.469c6.18,1.188,10.385,6.478,10.406,13.089c0.007,2.26,0.007,2.26,2.392,2.447
		c6.064,0.476,10.789,4.861,11.752,10.907c0.933,5.859-2.186,11.483-7.674,13.825c-0.427,0.182-0.866,0.351-1.314,0.467
		c-1.086,0.282-1.21,0.832-0.787,1.848c0.949,2.277,1.238,4.649,0.803,7.121c-0.9,5.116-4.731,9.395-9.739,10.384
		c-5.396,1.066-9.974-0.469-13.376-4.939c-1.637-2.151-1.574-2.125-3.861-0.865c-4.759,2.621-9.535,2.573-13.985-0.565
		c-4.441-3.132-6.125-7.582-5.259-12.965c0.074-0.46,0.203-0.91,0.295-1.367c0.163-0.809-0.25-1.014-0.933-0.812
		c-0.624,0.184-1.226,0.445-1.838,0.671c-12.414,4.586-24.82,9.193-37.252,13.73c-1.658,0.605-2.828,1.468-3.742,3.045
		c-10.331,17.831-20.734,35.619-31.118,53.42c-0.282,0.483-0.53,0.987-0.833,1.457c-0.545,0.844-0.375,1.282,0.634,1.57
		c1.883,0.537,3.71,1.25,5.442,2.178c6.496,3.479,10.921,8.668,12.729,15.864c0.408,1.624,1.126,2.564,2.631,3.211
		c2.309,0.994,4.534,2.184,6.793,3.293c0.853,0.419,1.702,0.864,1.705,1.992c0.003,1.127-0.812,1.572-1.697,1.974
		c-2.971,1.349-5.917,2.754-8.906,4.059c-0.814,0.355-1.405,0.759-1.765,1.604c-2.271,5.33-5.953,9.412-10.986,12.281
		c-0.307,0.175-0.795,0.315-0.738,0.732c0.059,0.426,0.559,0.364,0.894,0.403c4.074,0.474,8.149,0.947,12.226,1.398
		c3.707,0.41,7.434,0.673,11.12,1.221c3.371,0.501,6.453-0.63,9.631-1.271c1.206-0.243,1.426-1.362,1.839-2.28
		c3.555-7.907,7.105-15.816,10.656-23.724c0.535-1.19,1.053-2.388,1.61-3.568c0.41-0.869,0.267-1.365-0.758-1.59
		c-2.011-0.441-3.91-1.198-5.749-2.134c-7.646-3.892-8.936-11.366-8.411-17.751c0.085-1.039,0.571-1.467,1.677-1.191
		c7.756,1.934,14.068,6.152,14.503,16.015c0.016,0.373,0.008,0.749,0.059,1.117c0.047,0.338-0.151,0.858,0.284,0.964
		c0.646,0.157,0.652-0.52,0.821-0.888c1.436-3.136,2.848-6.283,4.262-9.428c0.612-1.36,1.186-2.738,1.827-4.084
		c0.515-1.081,0.946-2.402,2.588-1.915c1.238,0.367,1.458,1.444,0.64,3.294c-1.961,4.433-3.969,8.845-5.952,13.268
		c-1.601,3.573-3.215,7.14-4.776,10.73c-0.546,1.257-0.376,1.454,0.987,1.311c7.325-0.767,14.648-1.554,21.972-2.329
		c0.927-0.098,1.855-0.205,2.785-0.242c1.078-0.042,1.834,0.446,1.904,1.582c0.07,1.129-0.603,1.703-1.683,1.824
		c-3.15,0.354-6.299,0.715-9.452,1.045c-5.749,0.602-11.497,1.214-17.253,1.749c-1.187,0.11-1.82,0.612-2.284,1.671
		c-1.981,4.526-4.023,9.025-6.044,13.533c-0.187,0.416-0.525,0.898-0.224,1.283c0.31,0.396,0.865,0.188,1.314,0.083
		c3.994-0.926,7.987-1.857,11.98-2.789c0.272-0.064,0.535-0.169,0.809-0.224c2.649-0.533,3.459,0.209,3.017,2.956
		c-0.802,4.986-2.111,9.837-4.12,14.485c-1.499,3.467-1.488,3.458,2.019,4.828c6.886,2.691,13.506,5.889,19.416,10.397
		c6.458,4.926,11.519,10.892,13.624,18.931c0.454,1.734,1.567,1.783,2.934,1.798c7.928,0.089,15.855,0.194,23.782,0.317
		c8.859,0.137,17.719,0.255,26.576,0.485c1.779,0.046,2.847-0.476,3.864-1.997c17.095-25.591,34.246-51.144,51.432-76.674
		c0.954-1.418,1.289-2.775,1.117-4.439c-0.89-8.626-1.709-17.258-2.552-25.889c-0.489-5.011-0.972-10.023-1.471-15.033
		c-0.043-0.435,0.094-1.003-0.45-1.218c-0.545-0.215-0.822,0.297-1.142,0.591c-3.236,2.964-7.024,4.219-11.345,3.396
		c-6.755-1.287-10.984-7.057-10.463-14.081c0.168-2.261,0.172-2.285-2.003-2.659c-10.077-1.733-13.6-12.283-9.229-19.469
		c2.226-3.661,5.519-5.712,9.807-6.143c1.927-0.194,1.924-0.219,1.745-2.162c-0.581-6.282,2.965-11.839,8.754-13.719
		c5.937-1.928,12.174,0.526,15.366,6.047c1.058,1.83,1.058,1.83,2.991,0.859c5.9-2.965,12.734-1.403,16.501,3.773
		c3.727,5.121,3.217,11.918-1.249,16.662c-1.469,1.56-1.469,1.56-0.016,3.193c3.689,4.146,4.444,10.074,1.89,14.839
		c-2.596,4.843-7.778,7.419-13.377,6.65c-2.144-0.294-2.141-0.295-1.799,1.936c1.599,10.411,3.196,20.821,4.793,31.232
		c0.028,0.184,0.018,0.386,0.091,0.55c0.242,0.544-0.062,1.471,0.734,1.582c0.574,0.08,0.793-0.697,1.093-1.143
		c5.986-8.899,11.961-17.805,17.937-26.711c6.755-10.068,13.507-20.137,20.259-30.207c0.363-0.542,0.74-1.077,1.063-1.642
		c0.275-0.481,0.171-0.867-0.402-1.078c-0.612-0.226-1.229-0.451-1.812-0.74c-4.681-2.324-7.261-6.149-7.411-11.323
		c-0.146-5.05,2.113-8.979,6.511-11.589c0.32-0.19,0.653-0.368,1-0.498c1.007-0.375,1.262-0.892,0.61-1.875
		c-1.213-1.826-1.77-3.883-1.878-6.071c-0.272-5.487,2.716-10.379,7.677-12.538c5-2.176,10.585-1.073,14.431,2.85
		c0.065,0.067,0.131,0.133,0.195,0.201c1.588,1.662,1.588,1.662,3.298,0.253c7.188-5.923,17.946-2.785,20.629,6.07
		c0.979,3.232,0.741,6.442-0.731,9.535c-0.855,1.795-0.822,1.812,1.017,2.781c4.948,2.608,7.479,6.79,7.171,12.297
		c-0.308,5.505-3.259,9.422-8.503,11.398c-2.025,0.763-4.127,1.052-6.317,0.632c-2.182-0.419-2.229-0.359-2.72,1.783
		c-1.117,4.869-4.033,8.144-8.763,9.663c-5.785,1.857-11.385-0.363-14.978-5.765c-1.001-1.504-1.055-1.539-1.971-0.086
		c-3.93,6.231-7.829,12.482-11.727,18.733c-0.236,0.379-0.697,0.783-0.471,1.244c0.264,0.54,0.81,0.173,1.225,0.125
		c6.904-0.806,12.365,1.89,16.854,6.937c4.414,4.963,6.262,10.936,6.715,17.416c0.347,4.963,1.454,9.761,2.862,14.508
		c0.212,0.714,0.497,1.425,0.574,2.155c0.129,1.221-0.59,1.979-1.812,1.926c-0.636-0.028-1.269-0.263-1.893-0.442
		c-5.393-1.548-10.873-2.574-16.482-2.955c-3.266-0.222-6.483-0.835-9.472-2.253c-5.749-2.728-10.327-6.638-12.715-12.741
		c-0.519-1.325-0.664-1.311-1.503-0.167c-0.055,0.075-0.106,0.154-0.155,0.233c-4.504,7.192-9.014,14.381-13.498,21.586
		c-0.257,0.412-0.905,0.878-0.377,1.428c0.358,0.373,0.875-0.053,1.314-0.131c7.07-1.269,12,1.071,15.144,7.487
		c0.823,1.68,1.527,0.968,2.543,0.507c8.512-3.862,17.635,1.324,18.515,10.627c0.392,4.137-1.156,7.674-4.194,10.532
		c-1.513,1.423-1.514,1.422-0.153,3.119c3.947,4.923,3.939,11.735-0.019,16.516c-3.921,4.736-10.743,5.993-16.239,2.993
		c-2.138-1.167-2.138-1.167-3.444,0.841c-2.871,4.416-8.036,6.732-13.015,5.838c-5.284-0.949-9.324-4.775-10.498-10
		c-0.435-1.935-0.461-3.893,0.105-5.813c0.323-1.096-0.113-1.558-1.155-1.691c-4.152-0.532-7.319-2.599-9.507-6.159
		c-0.497-0.809-0.962-1.159-1.561-0.1c-0.229,0.405-0.496,0.789-0.744,1.184c-8.266,13.198-16.539,26.393-24.779,39.607
		c-0.463,0.742-1.508,1.482-0.974,2.434c0.495,0.883,1.651,0.634,2.563,0.647c13.149,0.193,26.298,0.385,39.447,0.564
		c25.18,0.342,50.36,0.669,75.54,1.015c22.284,0.306,44.569,0.63,66.853,0.947C1121.2,597.003,1121.2,604.092,1121.2,611.182z"/>
	<path class="st0" d="M998.103,640.496c-0.017-0.204,0.123-0.175,0.073-0.048c-0.135,0.342,0.247,0.044-0.122-0.015
		c-0.162-0.108-0.144-0.184,0.052-0.23C998.11,640.306,998.114,640.409,998.103,640.496z"/>
	<path class="st1" d="M735.173,764.812c0.039-0.482,0.187-0.88,0.725-0.981c-0.108-0.574,0.353-1.138,0.029-1.716
		c1.279-0.14,1.386-1.357,1.857-2.155c5.255-8.911,10.451-17.857,15.682-26.782c0.414-0.706,0.696-1.96,1.448-1.888
		c0.89,0.085,0.693,1.351,0.865,2.129c5.036,22.831,10.059,45.664,15.087,68.497c0.721,3.274,1.475,6.542,2.172,9.821
		c0.227,1.067,0.983,1.871,1.854,1.712c0.773-0.142,0.29-1.23,0.17-1.883c-1.826-9.893-3.665-19.784-5.521-29.672
		c-0.291-1.551-0.738-3.024-1.53-4.45c-2.231-4.017-3.253-8.312-2.323-12.924c0.264-1.308,0.132-2.589-0.11-3.884
		c-3.122-16.664-6.239-33.328-9.337-49.996c-0.208-1.122-0.545-2.111-1.285-3.029c-2.849-3.533-3.456-7.569-2.284-11.865
		c0.335-1.228,0.35-2.376,0.127-3.574c-2.628-14.103-5.242-28.208-7.918-42.302c-0.258-1.355,0.011-3.076-1.028-3.981
		c-1.18-1.028-2.843,0.041-4.296-0.081c-0.184-0.015-0.372,0.019-0.558,0.023c-2.451,0.05-2.572,0.205-1.863,2.608
		c0.079,0.267,0.09,0.552,0.15,0.825c5.463,24.835,10.909,49.674,16.428,74.497c0.393,1.769,0.202,3.213-0.641,4.787
		c-2.331,4.353-4.568,8.758-6.77,13.178c-3.406,6.835-7.12,13.514-10.285,20.474c-0.544,0.525-0.376,1.084-0.079,1.649
		c-0.229,0.297-0.458,0.595-0.684,0.88c-0.233,0.039-0.27,0.004-0.109-0.107C735.152,764.687,735.163,764.75,735.173,764.812z"/>
	<path class="st0" d="M392.705,521.961c-0.124,0.167-0.167,0.171-0.113,0.017c0.003-0.009,0.109,0.018,0.167,0.029
		c-0.043,0.578-0.086,1.155-0.13,1.733c0.691,0.176,0.905,1.408,1.914,0.868c-0.46,0.538-0.513,1.081-0.019,1.63
		c0.518,0.95,0.759,2.081,1.772,2.706c-0.087,0.605,0.234,1.079,0.549,1.528c0.934,1.333,1.222,3.124,2.816,3.989
		c0.082-1.767-1.407-2.759-2.068-4.162c-0.265-0.561-0.504-1.209-1.199-1.441c-0.297-1.114-0.515-2.286-1.909-2.583
		c0.405-0.546-0.148-1.12,0.048-1.672c-0.737-0.062-0.963-1.256-1.906-0.862C392.911,523.157,392.839,522.555,392.705,521.961z"/>
	<path class="st1" d="M996.809,638.672l0.104,0.01l-0.201,0.025c-0.008-0.505-0.017-1.009-0.043-1.497
		c-0.364-0.073-0.72-0.317-1.098-0.048c0.573-1.201-0.427-1.927-0.917-2.739c-4.331-7.187-8.715-14.342-13.081-21.509
		c-0.388-0.637-0.79-1.268-1.127-1.932c-0.257-0.507-0.117-0.904,0.527-0.932c0.932-0.04,1.864-0.06,2.797-0.075
		c11.655-0.182,23.31-0.361,34.965-0.541c24.709-0.381,49.419-0.757,74.128-1.148c7.459-0.118,14.917-0.276,22.375-0.419
		c2.529-0.049,2.541-0.054,2.554-2.709c0.014-2.798,0.006-5.597,0.003-8.395c-0.005-3.992,0.17-3.368-3.513-3.425
		c-23.404-0.365-46.808-0.697-70.213-1.016c-34.502-0.471-69.003-0.948-103.506-1.332c-2.713-0.03-5.118-0.493-7.404-1.93
		c-1.785-1.122-1.833-1.05-0.743-2.868c0.288-0.48,0.584-0.954,0.881-1.429c9.304-14.857,18.597-29.72,27.93-44.559
		c1.007-1.601,1.753-3.207,1.991-5.124c0.489-3.94,2.566-6.958,5.919-9.038c1.067-0.662,1.874-1.455,2.532-2.51
		c9.134-14.633,18.292-29.251,27.439-43.876c0.492-0.786,0.998-1.549,1.166-2.513c0.857-4.918,3.469-8.782,7.297-11.879
		c0.735-0.595,1.345-1.261,1.848-2.067c5.628-9.017,11.282-18.019,16.899-27.043c0.293-0.472,1.172-1.069,0.461-1.609
		c-0.604-0.458-1.435-0.011-1.984,0.545c-0.323,0.328-0.564,0.74-0.823,1.127c-14.134,21.06-28.26,42.126-42.418,63.169
		c-0.781,1.161-8.83,13.196-9.445,14.112c-7.222,10.763-14.442,21.527-21.665,32.289c-9.613,14.324-19.236,28.642-28.828,42.98
		c-0.817,1.221-1.571,2.054-3.295,2.01c-12.864-0.325-25.731-0.539-38.597-0.764c-4.663-0.082-9.326-0.124-13.989-0.135
		c-1.929-0.005-1.939,0.055-1.967,2.049c-0.027,1.864,0.011,3.723-0.307,5.578c-0.821,4.789-2.803,9.048-5.685,12.932
		c-0.87,1.172-0.733,1.467,0.622,1.423c8.009-0.261,16.035,0.205,24.031-0.553c2.093-0.198,2.092-0.208,2.081-2.387
		c-0.031-6.333,3.897-11.446,9.91-12.9c5.996-1.45,11.792,1.318,14.667,7.002c0.912,1.803,0.912,1.803,2.732,0.994
		c6.106-2.712,12.878-1.018,16.266,4.463c1.202,1.944,2.505,2.298,4.492,2.261c14.079-0.263,28.159-0.426,42.238-0.7
		c1.672-0.033,2.713,0.431,3.665,1.85c5.665,8.438,11.427,16.81,17.175,25.186c0.339,0.326,0.7,0.282,1.071,0.063
		C996.84,637.655,996.261,638.199,996.809,638.672z"/>
	<path class="st0" d="M390.704,519.155c0.066,0.212-0.091,0.225-0.075,0.083c0.042-0.364-0.218,0.03,0.15-0.033
		c0.152,0.5,0.304,1,0.446,1.49c0.026-0.209,0.164-0.145,0.087-0.036c-0.21,0.301,0.202,0.053-0.163-0.026
		C391.056,520.119,390.515,519.742,390.704,519.155z"/>
	<path class="st0" d="M494.273,676.142c-0.161-0.337,0.32-0.059-0.015-0.222c-0.185-0.09-0.242-0.033-0.152,0.152
		c0.163,0.335-0.114-0.146,0.222,0.015c-0.14,0.432-0.215,0.867,0.346,1.037c0.25,0.075,0.544-0.037,0.506-0.372
		C495.12,676.232,494.794,676.02,494.273,676.142z"/>
	<path class="st1" d="M802.67,423.081l0.064,0.054c-0.098-1.231,0.781-2.05,1.324-2.983c12.945-22.24,25.915-44.464,38.878-66.693
		c0.422-0.724,0.858-1.444,1.222-2.198c0.355-0.735,0.259-1.81-0.242-2.08c-0.919-0.497-1.125,0.673-1.473,1.225
		c-5.622,8.911-11.208,17.845-16.817,26.764c-0.61,0.97-0.881,2.025-1.15,3.121c-1.052,4.283-3.108,8.008-6.628,10.743
		c-1.366,1.062-2.376,2.32-3.272,3.752c-8.704,13.912-17.413,27.821-26.157,41.709c-0.96,1.524-1.629,3.053-1.827,4.883
		c-0.438,4.056-2.54,7.169-6.009,9.273c-1.161,0.704-2.013,1.552-2.724,2.693c-6.51,10.445-13.065,20.863-19.589,31.299
		c-0.48,0.768-1.526,1.633-1.129,2.394c0.52,0.998,1.841,0.257,2.803,0.379c0.92,0.117,1.883-0.055,2.79,0.107
		c1.568,0.28,2.459-0.378,3.055-1.746c0.296-0.679,0.739-1.294,1.115-1.938c10.473-17.961,20.971-35.907,31.382-53.904
		c1.1-1.902,2.448-3.048,4.532-3.75c4.855-1.635,9.63-3.508,14.435-5.291c6.464-2.398,12.925-4.804,19.39-7.199
		c0.657-0.243,1.384-0.337,1.841-0.959c-0.791-0.324-1.449,0.22-2.114,0.421c-9.988,3.021-19.952,6.121-29.937,9.149
		C805.215,422.675,804.044,423.423,802.67,423.081z"/>
	<path class="st1" d="M405.153,543.575c0.178-0.244,0.261-0.457-0.167-0.498c0.076,0.152,0.153,0.304,0.229,0.456
		c-0.187,1.501,0.577,2.687,1.272,3.904c6.52,11.414,13.039,22.829,19.544,34.251c1.385,2.433,1.34,2.48-1.452,2.457
		c-0.093-0.001-0.187-0.001-0.28-0.002c-16.595-0.26-33.19-0.544-49.786-0.773c-20.234-0.28-40.468-0.507-60.702-0.772
		c-9.603-0.125-19.206-0.3-28.809-0.416c-2.172-0.026-2.178,0.045-2.235,2.144c-0.018,0.652-0.011,1.306-0.001,1.959
		c0.151,10.163,0.286,20.326,0.467,30.488c0.081,4.531-0.933,4.146,4.184,4.071c23.123-0.337,46.245-0.736,69.367-1.093
		c22.843-0.352,45.687-0.66,68.53-1.062c1.623-0.029,2.829,0.399,4.053,1.38c4.729,3.792,9.513,7.515,14.277,11.264
		c17.956,14.129,35.917,28.251,53.854,42.404c1.292,1.02,2.517,1.54,4.272,1.472c6.008-0.234,11.323,3.855,12.67,9.758
		c0.453,1.984,1.444,3.245,2.968,4.439c19.228,15.076,38.42,30.197,57.625,45.303c0.584,0.459,1.173,0.922,1.807,1.305
		c0.377,0.227,0.828,0.001,0.789-0.421c-0.174-1.851,0.347-3.697-1.544-5.31c-6.667-5.689-13.145-11.602-19.653-17.476
		c-1.03-0.93-2.046-1.43-3.479-1.364c-8.12,0.37-16.585-6.492-18.263-14.902c-0.571-2.859-1.626-5.013-3.95-6.649
		c-0.682-0.48-1.262-1.104-1.889-1.663c-25.189-22.481-50.38-44.96-75.56-67.453c-0.669-0.597-1.956-1.177-1.726-1.954
		c0.274-0.927,1.616-0.492,2.484-0.507c19.858-0.343,39.717-0.649,59.575-0.99c1.051-0.018,2.585,0.51,3.006-0.524
		c0.296-0.726-1.206-1.456-1.919-2.162c-6.543-6.483-10.243-14.135-9.71-23.524c0.084-1.485,0.321-2.965,0.545-4.438
		c0.144-0.944-0.168-1.389-1.142-1.412c-2.423-0.058-4.844-0.175-7.267-0.214c-2.438-0.039-2.438-0.011-3.022,2.393
		c-2.096,8.639-11.403,12.672-19.174,8.304c-0.405-0.228-0.785-0.502-1.171-0.762c-0.478-0.322-0.883-0.222-1.176,0.242
		c-0.347,0.551-0.623,1.148-0.982,1.691c-3.277,4.953-9.374,7.026-14.997,5.111c-5.436-1.851-8.967-7.199-8.693-13.011
		c0.056-1.19,1.107-2.645,0.228-3.446c-0.849-0.773-2.403-0.808-3.666-1.078c-0.719-0.154-1.476-0.165-2.217-0.177
		c-2.797-0.045-5.611-0.257-8.388-0.034c-2.332,0.188-3.605-0.829-4.717-2.649c-6.756-11.059-13.545-22.098-20.368-33.116
		c-0.672-1.085-0.694-1.805,0.382-2.563c0.759-0.534,1.418-1.209,2.124-1.819c7.834-6.768,15.672-13.53,23.492-20.314
		c0.443-0.384,1.455-0.848,1.044-1.342c-0.481-0.578-1.025,0.41-1.541,0.706c-0.401,0.23-0.748,0.554-1.118,0.839
		c-8.272,6.377-16.576,12.714-24.78,19.176C407.214,544.135,406.314,544.191,405.153,543.575z"/>
	<path class="st2" d="M684.371,592.879c-5.595,0-11.19,0.023-16.785-0.004c-18.746-0.09-37.478-0.59-56.192-1.747
		c-13.126-0.812-26.22-1.886-39.201-4.051c-5.885-0.981-11.728-2.179-17.311-4.378c-2.267-0.893-4.451-1.945-6.214-3.679
		c-2.7-2.654-2.797-5.882-0.266-8.701c0.495-0.551,1.125-0.978,1.648-1.507c1.088-1.102,3.34-1.153,3.516-2.835
		c0.154-1.474-0.675-3.052-1.08-4.582c-0.143-0.54-0.357-1.064-0.465-1.61c-0.188-0.951-0.599-1.281-1.542-0.782
		c-0.739,0.391-1.522,0.709-2.308,0.997c-2.924,1.074-6.021,2.012-9.019,1.111c-2.74-0.824-4.847-0.062-7.119,1.107
		c-6.607,3.397-12.753,7.388-17.443,13.286c-7.92,9.96-9.025,24.748,1.645,35.631c4.974,5.073,10.855,8.778,17.199,11.815
		c12.62,6.042,26.034,9.56,39.676,12.301c22.54,4.528,45.371,6.607,68.291,7.722c19.186,0.934,38.389,1.203,57.605,0.878
		c25.752-0.435,51.433-1.751,76.965-5.277c13.674-1.888,27.222-4.436,40.457-8.434c9.574-2.892,18.879-6.438,27.347-11.886
		c4.024-2.589,7.698-5.594,10.695-9.352c4.784-6,6.708-12.752,5.471-20.408c-1.04-6.433-4.094-11.746-8.671-16.233
		c-7.295-7.152-16.343-11.288-25.754-14.779c-0.942-0.349-1.549-0.104-2.088,0.751c-1.443,2.294-3.149,4.39-4.959,6.408
		c-0.676,0.754-1.906,1.32-1.907,2.3c-0.001,1.066,1.481,1.185,2.175,1.888c0.261,0.264,0.578,0.472,0.852,0.723
		c3.598,3.299,3.493,7.217-0.354,10.212c-1.094,0.851-2.336,1.541-3.582,2.16c-2.09,1.038-4.31,1.757-6.553,2.4
		c-7.731,2.216-15.66,3.399-23.615,4.372c-15.003,1.834-30.084,2.725-45.176,3.339C721.672,592.794,703.022,593.001,684.371,592.879
		z"/>
	<path class="st3" d="M696.754,448.146c0-5.221,0.017-10.443-0.007-15.664c-0.013-2.896-0.278-5.771-1.018-8.584
		c-4.96-18.847-27.851-25.962-42.368-13.116c-6.234,5.516-9.042,12.628-9.05,20.88c-0.019,17.528-0.006,35.057-0.006,52.585
		c0,13.519-0.004,27.039,0.004,40.558c0.001,2.209,0.014,2.252,2.072,2.862c4.647,1.377,8.271,4.183,11.234,7.929
		c2.214,2.799,3.91,5.897,5.208,9.215c0.426,1.089,0.845,1.869,2.348,1.818c2.431-0.083,4.181,1.341,5.515,3.292
		c1.392,2.037,2.168,4.332,2.674,6.709c0.446,2.093,0.725,4.222,1.087,6.333c0.046,0.266,0.089,0.692,0.244,0.751
		c0.417,0.157,0.639-0.229,0.839-0.539c1.16-1.801,2.201-3.693,3.498-5.388c2.393-3.127,4.897-6.193,9.286-6.522
		c0.86-0.064,0.767-0.616,0.561-1.181c-0.224-0.612-0.488-1.21-0.725-1.818c-3.03-7.777-4.976-15.831-5.658-24.136
		c-1.606-19.559,2.526-37.797,13.039-54.467c0.89-1.412,1.268-2.803,1.249-4.453C696.714,459.521,696.754,453.833,696.754,448.146z"
		/>
	<path class="st4" d="M748.997,588.101c0.001,0.02,0.002,0.039,0.003,0.059c5.769-0.369,11.542-0.685,17.306-1.118
		c7.623-0.573,15.235-1.295,22.808-2.346c7.016-0.974,7.053-1.069,11.049-6.693c0.108-0.152,0.233-0.295,0.321-0.457
		c0.205-0.378,0.77-0.748,0.378-1.187c-0.351-0.394-0.87,0.024-1.278,0.142c-6.667,1.934-13.398,2.224-20.188,0.789
		c-11.117-2.349-20.026-8.334-27.388-16.797c-1.527-1.755-2.95-3.616-4.26-5.537c-1.18-1.731-0.776-2.729,1.182-3.327
		c1.245-0.38,2.533-0.616,3.803-0.912c11.612-2.709,23.225-5.417,34.837-8.124c0.454-0.106,0.909-0.203,1.364-0.306
		c0.357-0.081,0.812-0.135,0.803-0.592c-0.012-0.542-0.541-0.377-0.849-0.41c-9.176-0.975-18.351-1.967-27.533-2.882
		c-4.445-0.443-8.571-1.723-12.3-4.204c-0.541-0.36-1.1-0.732-1.533-1.206c-0.637-0.699-0.682-1.527-0.061-2.283
		c0.539-0.656,1.269-0.803,2.012-0.414c0.658,0.344,1.252,0.807,1.881,1.207c3.81,2.426,8.009,3.563,12.488,3.435
		c10.2-0.291,19.145-7.968,20.919-17.822c1.891-10.503-3.375-20.007-13.377-24.057c-6.255-2.533-12.714-2.717-19.242-1.381
		c-11.444,2.343-20.399,8.593-26.964,18.082c-10.691,15.454-12.938,32.481-8.293,50.463c2.807,10.866,8.634,19.94,17.432,27.038
		c1.316,1.062,2.639,1.528,4.344,1.389C742.099,588.372,745.551,588.274,748.997,588.101z"/>
	<path class="st5" d="M632.521,588.714c8.677,0.213,16.502,0.419,24.327,0.59c3.316,0.073,3.004,0.662,4.096-3.108
		c3.067-10.587,3.363-21.312,1.08-32.072c-1.327-6.256-3.604-12.151-7.81-17.117c-5.285-6.24-12.455-8.133-20.166-5.396
		c-3.557,1.263-6.728,3.197-9.617,5.588c-9.31,7.705-15.454,17.55-19.332,28.888c-2.038,5.958-3.101,12.081-2.712,18.405
		c0.151,2.448,0.225,2.489,2.517,2.685C614.378,587.988,623.883,588.235,632.521,588.714z"/>
	<path class="st5" d="M560.175,566.545c0.019,4.293,0.341,8.549,1.128,12.786c0.294,1.584,1.042,2.15,2.469,2.481
		c10.919,2.533,22.021,3.778,33.161,4.739c2,0.172,2.056,0.074,1.986-1.893c-0.15-4.206,0.059-8.374,0.913-12.511
		c1.775-8.599,5.184-16.511,10.043-23.789c0.93-1.393,0.932-2.368,0.001-3.714c-2.984-4.314-6.252-8.355-10.337-11.686
		c-2.836-2.313-5.885-4.264-9.391-5.409c-6.258-2.044-11.944-1.013-17.007,3.231c-3.052,2.558-5.297,5.749-7.071,9.275
		C561.88,548.384,560.263,557.297,560.175,566.545z"/>
	<path class="st3" d="M685.664,515.976c-0.028,3.272,0.159,6.522,0.541,9.771c1.792,15.244,7.256,29.012,16.358,41.37
		c1.035,1.405,2.026,1.866,3.722,1.39c7.132-2.002,11.76,3.595,8.864,9.806c-0.555,1.19-0.225,1.858,0.703,2.597
		c3.434,2.736,7.016,5.246,10.838,7.411c0.578,0.327,1.157,0.624,1.839,0.551c0.453-0.048,1.132-0.008,1.297-0.268
		c0.282-0.448-0.294-0.782-0.623-1.089c-4.474-4.171-8.274-8.893-10.983-14.373c-9.754-19.728-9.499-39.487,0.21-59.148
		c0.832-1.686,0.963-2.91,0.046-4.606c-6.339-11.722-12.561-23.507-18.823-35.271c-0.263-0.493-0.524-0.988-0.818-1.462
		c-0.335-0.539-0.712-0.481-1.031,0.018c-0.402,0.627-0.792,1.263-1.16,1.91C689.341,487.416,685.678,501.213,685.664,515.976z"/>
	<path class="st4" d="M788.02,574.729c8.802-0.21,16.843-2.971,23.798-8.684c8.254-6.781,12.948-15.711,15.477-25.915
		c0.84-3.388,0.806-3.382-2.657-2.573c-18.759,4.382-37.519,8.757-56.279,13.133c-4.803,1.121-9.61,2.227-14.409,3.364
		c-2.156,0.511-2.169,0.581-0.738,2.391c2.086,2.638,4.392,5.069,6.94,7.265C768.115,570.576,777.255,574.488,788.02,574.729z"/>
	<path class="st6" d="M707.974,771.069c0.065,0.816,0.137,1.282,0.132,1.746c-0.021,2.032-1.117,2.645-2.878,1.609
		c-0.481-0.283-0.908-0.658-1.393-0.932c-2.403-1.357-4.945-1.601-7.559-0.773c-4.072,1.29-6.779,5.149-6.625,9.348
		c0.159,4.338,3.216,7.923,7.526,8.939c1.109,0.261,2.596-0.08,3.112,1.399c0.525,1.506-0.836,2.108-1.623,2.957
		c-3.8,4.099-3.387,10.447,0.912,13.902c4.342,3.488,10.564,2.578,13.779-2.024c0.319-0.457,0.543-0.981,0.865-1.435
		c1.116-1.576,2.507-1.411,3.317,0.39c0.228,0.508,0.353,1.065,0.602,1.561c1.741,3.477,4.576,5.397,8.452,5.453
		c3.884,0.056,6.828-1.78,8.576-5.24c1.757-3.477,1.328-6.862-0.952-10.004c-0.381-0.525-0.905-0.948-1.283-1.475
		c-0.978-1.366-0.531-2.469,1.141-2.837c0.907-0.2,1.855-0.243,2.741-0.504c5.121-1.51,7.956-6.94,6.297-11.985
		c-1.669-5.077-7.094-7.78-12.121-6.018c-0.699,0.245-1.338,0.661-2.034,0.918c-1.855,0.684-2.824-0.175-2.495-2.186
		c0.06-0.367,0.165-0.727,0.232-1.094c0.72-3.946-0.443-7.232-3.67-9.613c-3.129-2.309-6.576-2.586-10.007-0.738
		C709.497,764.331,707.856,767.409,707.974,771.069z"/>
	<path class="st6" d="M384.719,472.819c-0.036-4.824-3.396-8.792-7.81-9.48c-4.732-0.738-9.176,1.842-10.637,6.227
		c-0.382,1.147-0.59,2.345-0.547,3.574c0.03,0.847,0.03,1.708-0.859,2.199c-1.049,0.58-1.751-0.101-2.473-0.698
		c-0.216-0.178-0.428-0.363-0.659-0.518c-3.431-2.3-6.989-2.511-10.505-0.337c-3.296,2.038-4.882,5.154-4.437,9
		c0.483,4.179,2.873,6.947,6.962,8.203c1.077,0.331,2.607,0.061,2.904,1.685c0.286,1.562-1.152,1.956-2.013,2.723
		c-2.917,2.599-3.972,5.862-3.033,9.596c0.945,3.757,3.506,6.149,7.283,6.94c3.804,0.797,6.963-0.56,9.417-3.545
		c0.412-0.501,0.676-1.125,1.098-1.615c1.077-1.255,2.333-1.053,3.016,0.483c0.263,0.591,0.366,1.252,0.606,1.856
		c2.066,5.176,8.023,7.495,12.984,5.068c5.087-2.489,6.871-8.73,3.867-13.565c-0.294-0.473-0.692-0.883-0.977-1.36
		c-0.961-1.614-0.457-2.681,1.366-2.907c0.921-0.114,1.866-0.1,2.769-0.291c4.451-0.938,7.515-4.675,7.562-9.152
		c0.046-4.321-2.867-8.159-7.099-9.279c-2.347-0.621-4.567-0.214-6.797,0.74c-2.05,0.877-3.103-0.078-2.58-2.241
		C384.411,474.943,384.751,473.789,384.719,472.819z"/>
	<path class="st6" d="M481.995,671.546c-6.478-0.011-11.002,6.171-9.045,12.359c1.284,4.06,1.063,4.25-3.212,3.488
		c-3.918-0.698-7.244,0.488-9.591,3.752c-2.34,3.254-2.518,6.808-0.526,10.267c1.992,3.459,5.161,4.978,9.148,4.741
		c1.226-0.073,2.626-1.064,3.57,0.43c0.819,1.295-0.345,2.261-0.862,3.301c-2.485,4.999-0.319,10.971,4.764,13.098
		c5.218,2.184,11.061-0.583,12.756-6.059c0.191-0.618,0.219-1.285,0.392-1.91c0.484-1.748,1.821-2.15,3.093-0.915
		c0.532,0.516,0.929,1.171,1.458,1.69c3.982,3.908,10.317,3.6,13.892-0.659c3.574-4.257,2.774-10.546-1.757-13.812
		c-3.502-2.525-3.475-2.83,0.227-4.789c3.447-1.824,5.268-4.776,5.182-8.622c-0.088-3.965-2.078-6.937-5.78-8.508
		c-3.58-1.519-6.932-0.91-9.926,1.566c-0.572,0.473-1.006,1.127-1.61,1.543c-1.068,0.737-2.269,0.248-2.584-1.024
		c-0.155-0.626-0.09-1.302-0.207-1.941C490.519,674.82,486.675,671.554,481.995,671.546z"/>
	<path class="st6" d="M576.743,739.785c-5.139,0.01-9.012,3.24-9.789,7.732c-0.808,4.673,1.759,9.128,6.174,10.662
		c1.708,0.593,3.456,0.686,5.237,0.301c0.918-0.199,1.906-0.357,2.486,0.67c0.477,0.844,0.131,1.614-0.372,2.337
		c-0.159,0.229-0.304,0.471-0.432,0.719c-1.793,3.465-1.664,6.882,0.609,10.033c2.255,3.126,5.443,4.575,9.277,3.877
		c3.904-0.71,6.453-3.111,7.618-6.963c0.353-1.169-0.013-2.861,1.695-3.216c1.507-0.313,1.947,1.188,2.757,2.012
		c2.804,2.853,6.156,3.86,9.962,2.629c3.696-1.195,5.918-3.915,6.464-7.724c0.55-3.835-0.982-6.922-4.152-9.165
		c-0.455-0.322-0.993-0.534-1.426-0.88c-1.216-0.972-1.174-2.115,0.128-2.921c0.628-0.389,1.367-0.595,2.018-0.952
		c4.328-2.377,6.111-7.539,4.175-12.034c-1.938-4.501-6.908-6.793-11.579-5.32c-1.827,0.576-3.23,1.761-4.586,3.089
		c-1.33,1.302-2.613,0.839-2.991-0.945c-0.173-0.819-0.21-1.668-0.408-2.48c-1.161-4.753-5.57-7.685-10.587-7.068
		c-4.527,0.556-8.036,4.606-8.057,9.295c-0.005,1.128,0.136,2.221,0.54,3.29c0.382,1.011,1.211,2.072,0.323,3.139
		c-0.905,1.088-2.032,0.424-3.106,0.163C577.912,739.868,577.066,739.828,576.743,739.785z"/>
	<path class="st6" d="M987.588,447.063c-0.054-3.489-1.504-6.171-4.359-8.053c-3.609-2.379-3.607-2.651-0.054-4.817
		c3.31-2.018,5.03-5.039,4.725-8.896c-0.313-3.96-2.477-6.813-6.234-8.209c-3.789-1.408-7.137-0.438-10.03,2.307
		c-0.834,0.791-1.355,2.266-2.874,1.75c-1.437-0.488-1.199-1.938-1.431-3.094c-1.087-5.402-6.612-8.728-11.945-7.199
		c-5.264,1.509-8.148,7.35-6.175,12.504c1.507,3.936,1.261,4.21-2.954,3.673c-4.08-0.52-7.4,0.868-9.569,4.401
		c-2.095,3.414-2.034,6.982,0.252,10.272c2.333,3.358,5.634,4.747,9.737,3.946c0.549-0.107,1.095-0.297,1.646-0.313
		c1.352-0.039,2.071,0.898,1.673,2.199c-0.188,0.615-0.57,1.169-0.844,1.76c-0.848,1.828-1.154,3.737-0.742,5.723
		c0.912,4.397,4.68,7.617,9.074,7.778c4.338,0.159,8.296-2.861,9.459-7.256c0.213-0.806,0.212-1.671,0.452-2.466
		c0.387-1.283,1.57-1.665,2.623-0.845c0.581,0.452,1.006,1.097,1.546,1.608c2.824,2.669,6.92,3.426,10.385,1.797
		C985.564,453.935,987.452,451.03,987.588,447.063z"/>
	<path class="st6" d="M916.409,646.024c3.7,0.035,7.326-2.538,8.638-6.493c1.297-3.91-0.12-8.215-3.511-10.671
		c-3.43-2.484-3.394-2.828,0.246-4.803c3.516-1.909,5.343-4.929,5.142-8.912c-0.194-3.858-2.212-6.705-5.775-8.228
		c-3.695-1.579-7.099-0.845-10.129,1.765c-0.866,0.746-1.451,2.16-2.959,1.583c-1.478-0.566-1.058-2.003-1.237-3.147
		c-0.7-4.47-4.496-7.876-9.045-8.111c-4.189-0.217-8.219,2.742-9.47,6.878c-0.714,2.36-0.429,4.601,0.577,6.792
		c0.369,0.804,0.592,1.579-0.112,2.321c-0.691,0.727-1.46,0.57-2.315,0.305c-1.331-0.413-2.681-0.732-4.116-0.545
		c-5.281,0.687-9.002,5.14-8.552,10.286c0.46,5.272,5.041,9.011,10.473,8.626c1.203-0.085,2.616-1.04,3.584,0.472
		c0.874,1.364-0.438,2.228-0.909,3.258c-1.606,3.515-1.488,6.913,0.86,10.019c2.411,3.19,5.716,4.421,9.634,3.561
		c3.809-0.836,6.138-3.319,7.166-7.046c0.173-0.625,0.182-1.309,0.429-1.898c0.52-1.243,1.686-1.504,2.694-0.614
		c0.483,0.426,0.818,1.014,1.263,1.489C910.853,644.912,913.127,646.03,916.409,646.024z"/>
	<path class="st6" d="M765.164,690.024c-5.049,0.055-9.157,3.759-9.575,8.383c-0.479,5.283,2.673,9.457,7.918,10.486
		c4.11,0.806,4.22,1.12,1.551,4.438c-3.499,4.349-2.596,10.595,1.991,13.765c4.472,3.091,10.534,1.83,13.428-2.805
		c0.344-0.551,0.568-1.18,0.928-1.718c0.933-1.396,2.21-1.389,3.057,0.025c0.332,0.554,0.488,1.21,0.796,1.78
		c1.511,2.803,3.823,4.54,6.992,4.994c4.131,0.592,7.92-1.347,9.819-4.935c1.966-3.715,1.343-7.816-1.675-11.081
		c-0.672-0.727-1.747-1.273-1.425-2.519c0.364-1.408,1.687-1.239,2.724-1.52c0.09-0.024,0.184-0.033,0.274-0.054
		c3.928-0.915,6.422-3.391,7.284-7.259c0.841-3.773-0.364-7.05-3.426-9.438c-3.159-2.465-6.641-2.677-10.24-0.937
		c-0.502,0.242-0.958,0.595-1.477,0.781c-1.384,0.497-2.464-0.274-2.4-1.707c0.02-0.456,0.243-0.899,0.306-1.358
		c0.555-4.069-0.752-7.409-4.213-9.653c-3.355-2.175-6.942-2.194-10.271,0.004c-3.394,2.24-4.901,5.505-4.18,9.626
		c0.179,1.022,0.478,2.076-0.635,2.758c-0.97,0.594-1.761,0.011-2.555-0.506C768.559,690.533,766.807,689.977,765.164,690.024z"/>
	<path class="st6" d="M872.001,322.565c-1.215,0.158-2.424,0.482-3.077-0.803c-0.568-1.117,0.243-1.933,0.835-2.764
		c0.162-0.227,0.306-0.469,0.442-0.713c3.491-6.286-0.946-13.951-8.132-14.051c-4.336-0.06-7.566,2.29-9.235,6.735
		c-0.323,0.86-0.441,1.883-1.6,2.068c-1.293,0.206-1.784-0.743-2.285-1.658c-0.089-0.163-0.191-0.322-0.301-0.471
		c-2.303-3.1-5.372-4.665-9.214-4.038c-4.031,0.657-6.743,3.055-7.791,7.076c-1.027,3.936,0.312,7.134,3.311,9.728
		c0.421,0.364,0.944,0.618,1.339,1.006c1.057,1.036,0.873,2.258-0.451,2.923c-0.576,0.29-1.242,0.395-1.836,0.656
		c-3.024,1.329-4.951,3.597-5.609,6.843c-0.799,3.94,0.879,7.812,4.206,9.912c3.362,2.122,7.403,1.951,10.763-0.428
		c0.865-0.612,1.543-1.807,2.885-1.179c1.455,0.681,0.981,2.036,1.02,3.201c0.006,0.186,0,0.373,0.011,0.559
		c0.376,6.432,6.97,10.606,12.946,8.194c4.628-1.868,6.888-6.657,5.5-11.732c-0.269-0.985-0.85-1.992,0.008-2.887
		c1.011-1.054,2.066-0.257,3.083,0.131c0.087,0.033,0.175,0.065,0.263,0.094c3.924,1.26,7.381,0.486,10.227-2.511
		c2.628-2.767,3.287-7.032,1.607-10.412C879.08,324.348,876,322.59,872.001,322.565z"/>
	<path class="st6" d="M438.256,515.141c-0.054,4.745,2.505,8.436,6.27,9.79c3.818,1.373,7.971,0.207,10.584-2.993
		c0.411-0.503,0.707-1.099,1.111-1.609c1.213-1.529,2.573-1.291,3.289,0.57c0.2,0.52,0.302,1.079,0.518,1.59
		c1.467,3.475,4.072,5.535,7.826,5.916c3.876,0.394,6.983-1.128,9.017-4.434c2.031-3.301,1.924-6.726-0.061-10.062
		c-0.332-0.558-0.826-1.022-1.138-1.589c-0.739-1.342-0.235-2.347,1.311-2.603c0.824-0.136,1.678-0.086,2.503-0.214
		c5.534-0.858,9.167-6.206,7.83-11.493c-1.411-5.578-6.987-8.626-12.389-6.765c-0.527,0.182-1.022,0.47-1.556,0.617
		c-1.789,0.495-2.744-0.374-2.385-2.162c0.128-0.636,0.384-1.247,0.512-1.883c1.09-5.446-2.638-10.519-8.222-11.208
		c-5.352-0.66-10.169,3.389-10.52,8.82c-0.074,1.15,0.45,2.529-0.955,3.258c-1.462,0.758-2.186-0.596-3.123-1.236
		c-3.255-2.223-7.306-2.405-10.532-0.301c-3.469,2.262-4.97,5.553-4.292,9.61c0.657,3.935,3.081,6.476,6.943,7.589
		c0.358,0.103,0.726,0.173,1.092,0.244c0.872,0.169,1.634,0.498,1.819,1.476c0.161,0.853-0.365,1.391-0.985,1.859
		c-0.446,0.337-0.916,0.649-1.325,1.027C439.383,510.82,438.298,513.115,438.256,515.141z"/>
	<path class="st6" d="M896.401,404.571c-0.052-6.136-5.779-10.599-11.67-9.14c-1.177,0.292-2.461,1.394-3.6-0.006
		c-0.999-1.227,0.126-2.281,0.478-3.371c1.21-3.739,0.425-7.057-2.301-9.79c-2.733-2.74-6.098-3.577-9.783-2.253
		c-3.767,1.353-5.898,4.158-6.344,8.124c-0.484,4.306-0.664,4.422-4.237,2.253c-3.329-2.02-6.756-2.085-10.05-0.014
		c-3.283,2.063-4.793,5.148-4.39,9.036c0.405,3.906,2.627,6.463,6.194,7.936c1.063,0.439,2.584,0.213,2.902,1.763
		c0.36,1.758-1.3,2.061-2.255,2.816c-4.929,3.897-4.937,11.174-0.018,15.027c3.923,3.073,10.313,2.654,13.595-2.092
		c0.531-0.769,1.033-1.669,2.156-1.475c1.249,0.215,1.494,1.25,1.623,2.315c0.022,0.185,0.056,0.37,0.106,0.549
		c1.029,3.703,4.234,6.557,7.948,6.952c3.985,0.424,7.136-1.072,9.304-4.442c2.04-3.171,1.833-7.401-0.408-10.53
		c-0.325-0.454-0.756-0.838-1.042-1.312c-0.859-1.427-0.298-2.527,1.389-2.737c0.552-0.069,1.12,0,1.677-0.045
		C892.676,413.727,896.444,409.591,896.401,404.571z"/>
	<path class="st6" d="M1060.282,402.707c0.034-4.118-2.633-7.777-6.737-9.031c-4.023-1.229-8.334,0.397-10.73,4.025
		c-0.635,0.961-0.859,2.476-2.444,2.322c-1.538-0.15-1.559-1.67-2.074-2.703c-3.071-6.157-11.124-7.261-15.667-2.136
		c-3.501,3.949-3.096,9.599,1.008,13.493c0.763,0.724,1.642,1.347,1.169,2.561c-0.41,1.052-1.4,1.094-2.34,1.166
		c-0.186,0.014-0.373,0.027-0.555,0.064c-3.811,0.778-6.434,3.018-7.471,6.731c-1.029,3.684-0.162,7.067,2.777,9.659
		c2.999,2.644,6.427,3.124,10.155,1.64c1.126-0.448,2.163-1.804,3.547-0.656c1.237,1.027,0.29,2.258,0.142,3.388
		c-0.722,5.498,2.821,10.219,8.298,11.01c5.043,0.728,9.861-3.195,10.559-8.555c0.136-1.048-0.145-2.033-0.219-3.047
		c-0.135-1.842,0.921-2.603,2.605-1.923c0.515,0.208,0.97,0.563,1.483,0.777c3.686,1.537,7.157,1.142,10.175-1.493
		c3.022-2.639,3.985-6.085,2.821-9.884c-1.163-3.796-3.881-6.033-7.867-6.614c-0.551-0.08-1.137-0.04-1.653-0.214
		c-1.262-0.426-1.65-1.596-0.877-2.657c0.378-0.519,0.94-0.901,1.376-1.383C1059.38,407.452,1060.324,405.38,1060.282,402.707z"/>
	<path class="st6" d="M1046.975,666.247c-0.094-3.858-1.837-6.804-5.313-8.513c-3.59-1.765-7.062-1.286-10.214,1.198
		c-0.582,0.459-1.025,1.095-1.613,1.545c-1.204,0.922-2.384,0.529-2.766-0.92c-0.189-0.716-0.187-1.479-0.327-2.211
		c-1.023-5.349-6.276-8.732-11.551-7.454c-5.34,1.294-8.451,6.96-6.738,12.223c0.356,1.093,1.412,2.2,0.382,3.38
		c-1.029,1.179-2.236,0.31-3.377,0.067c-6.86-1.465-12.793,4.338-11.43,11.172c1.011,5.073,5.592,8.112,11.099,7.36
		c1.006-0.137,2.089-0.496,2.765,0.643c0.58,0.975-0.012,1.777-0.52,2.566c-0.101,0.157-0.202,0.314-0.288,0.479
		c-1.802,3.464-1.655,6.878,0.6,10.035c2.246,3.146,5.448,4.565,9.273,3.882c3.906-0.697,6.451-3.101,7.622-6.954
		c0.353-1.162-0.022-2.858,1.701-3.21c1.511-0.309,1.952,1.182,2.763,2.002c2.808,2.842,6.143,3.875,9.959,2.622
		c3.691-1.212,5.922-3.914,6.453-7.73c0.532-3.827-0.985-6.922-4.157-9.162c-0.456-0.322-0.993-0.535-1.424-0.883
		c-1.209-0.977-1.156-2.112,0.15-2.919c0.55-0.34,1.203-0.506,1.773-0.818C1045.097,672.842,1046.837,670.059,1046.975,666.247z"/>
	<path class="st6" d="M798.47,826.14c-0.532,0.098-0.897,0.214-1.265,0.225c-1.816,0.056-2.508-1.008-1.748-2.693
		c0.268-0.593,0.661-1.132,0.903-1.734c1.501-3.742,0.908-7.185-1.811-10.116c-2.462-2.654-5.581-3.695-9.153-2.772
		c-3.886,1.004-6.183,3.603-7.119,7.477c-0.247,1.021,0.102,2.39-1.337,2.816c-1.543,0.456-2.065-0.908-2.889-1.727
		c-2.846-2.825-6.232-3.726-10.008-2.42c-3.54,1.225-5.72,3.804-6.227,7.567c-0.536,3.974,0.94,7.118,4.271,9.365
		c0.462,0.311,1.009,0.5,1.458,0.826c1.474,1.07,1.32,2.378-0.375,3.176c-0.588,0.277-1.253,0.396-1.823,0.7
		c-3.523,1.877-5.406,4.789-5.294,8.825c0.108,3.919,2.04,6.792,5.58,8.341c3.63,1.589,7.095,1.041,10.178-1.569
		c0.934-0.791,1.51-2.384,3.16-1.775c1.451,0.535,1.111,2.001,1.346,3.13c1.103,5.294,6.492,8.63,11.676,7.204
		c5.432-1.494,8.39-7.034,6.545-12.282c-0.216-0.613-0.564-1.182-0.76-1.8c-0.531-1.677,0.17-2.563,1.885-2.399
		c0.459,0.044,0.908,0.202,1.361,0.312c4.065,0.989,7.422-0.256,9.907-3.503c2.435-3.18,2.684-6.741,0.726-10.243
		C805.645,827.472,802.391,825.963,798.47,826.14z"/>
	<path class="st6" d="M439.305,572.343c0.024,5.279,4.141,9.397,9.417,9.379c0.927-0.003,1.853-0.222,2.782-0.249
		c1.733-0.051,2.408,0.903,1.781,2.486c-0.169,0.427-0.479,0.797-0.698,1.207c-1.891,3.55-1.752,7.055,0.643,10.258
		c2.296,3.071,5.467,4.465,9.327,3.706c4.068-0.8,6.535-3.382,7.577-7.338c0.279-1.06,0.104-2.369,1.468-2.758
		c1.411-0.402,1.899,0.855,2.606,1.672c0.061,0.07,0.121,0.142,0.185,0.21c2.752,2.929,6.125,3.915,9.929,2.751
		c3.705-1.134,5.976-3.81,6.55-7.636c0.573-3.827-0.867-6.946-4.029-9.22c-0.528-0.38-1.161-0.625-1.653-1.041
		c-1.055-0.894-0.995-2.021,0.163-2.769c0.618-0.399,1.37-0.583,2.017-0.944c3.405-1.899,5.209-4.88,5.05-8.711
		c-0.163-3.941-2.207-6.896-5.931-8.428c-3.623-1.491-6.939-0.763-9.89,1.75c-0.495,0.422-0.89,0.972-1.413,1.35
		c-1.215,0.878-2.378,0.421-2.704-1.051c-0.14-0.632-0.095-1.303-0.22-1.94c-1.112-5.668-6.501-9.07-11.967-7.572
		c-5.258,1.441-8.123,7.107-6.289,12.451c0.151,0.44,0.407,0.85,0.514,1.297c0.396,1.66-0.411,2.555-2.079,2.288
		c-0.731-0.117-1.433-0.42-2.165-0.527C444.296,562.085,439.277,566.387,439.305,572.343z"/>
	<path class="st6" d="M743.326,436.301c-0.035,3.964,2.329,7.499,5.997,8.955c3.762,1.494,7.987,0.456,10.66-2.652
		c0.483-0.562,0.831-1.239,1.302-1.814c1.144-1.398,2.538-1.214,3.188,0.423c0.273,0.688,0.363,1.453,0.666,2.125
		c1.651,3.657,4.531,5.686,8.512,5.789c3.862,0.099,6.878-1.67,8.628-5.147c1.792-3.56,1.41-7.037-1.02-10.236
		c-0.337-0.443-0.811-0.787-1.119-1.246c-0.923-1.374-0.44-2.512,1.196-2.842c0.637-0.128,1.298-0.137,1.942-0.24
		c5.516-0.889,8.995-6.092,7.74-11.562c-1.196-5.211-6.689-8.395-11.903-6.884c-0.625,0.181-1.204,0.529-1.833,0.678
		c-1.289,0.306-2.267-0.489-2.124-1.778c0.08-0.725,0.453-1.413,0.643-2.132c1.665-6.303-3.063-12.334-9.492-12.082
		c-5.634,0.221-9.542,5.206-9.07,10.051c0.099,1.017,0.254,2.13-0.909,2.698c-0.997,0.487-1.782-0.132-2.55-0.677
		c-0.152-0.107-0.311-0.205-0.475-0.294c-3.511-1.913-7.007-1.883-10.285,0.413c-3.069,2.15-4.506,5.252-3.966,8.974
		c0.589,4.055,3.024,6.709,6.957,7.933c0.531,0.165,1.122,0.166,1.627,0.38c1.394,0.59,1.642,1.806,0.586,2.87
		c-0.455,0.458-1.051,0.772-1.541,1.2C744.536,431.081,743.38,433.434,743.326,436.301z"/>
	<path class="st6" d="M1008.767,558.783c4.219-0.039,7.723-2.652,8.983-6.701c1.234-3.964-0.243-8.158-3.723-10.574
		c-3.352-2.327-3.308-2.731,0.287-4.624c3.542-1.865,5.397-4.849,5.249-8.854c-0.144-3.88-2.1-6.722-5.66-8.302
		c-3.701-1.643-7.098-0.906-10.15,1.65c-0.427,0.357-0.748,0.841-1.18,1.19c-1.313,1.061-2.523,0.669-2.891-0.94
		c-0.165-0.724-0.179-1.481-0.333-2.208c-1.171-5.492-6.526-8.746-11.898-7.246c-5.16,1.44-8.062,7.037-6.323,12.205
		c0.207,0.616,0.535,1.206,0.652,1.836c0.245,1.328-0.571,2.207-1.899,2.04c-0.731-0.092-1.429-0.431-2.159-0.551
		c-3.953-0.65-7.228,0.577-9.542,3.853c-2.245,3.179-2.395,6.648-0.507,10.028c1.95,3.492,5.06,5.091,9.079,4.819
		c0.743-0.05,1.482-0.252,2.221-0.243c1.388,0.017,2.064,0.947,1.608,2.236c-0.245,0.692-0.73,1.295-1.055,1.964
		c-2.432,5.017-0.144,10.944,5.001,12.983c5.173,2.05,10.837-0.669,12.531-6.039c0.251-0.796,0.303-1.658,0.585-2.439
		c0.457-1.261,1.657-1.585,2.67-0.731c0.49,0.413,0.83,1,1.269,1.48C1003.51,557.726,1005.887,558.828,1008.767,558.783z"/>
	<path class="st7" d="M972.727,658.11c4.828-0.364,9.426-1.455,13.234-4.616c4.675-3.88,6.274-8.853,4.767-14.765
		c-0.515-2.021-0.704-2.119-2.674-1.406c-6.504,2.353-12.68,5.366-18.42,9.246c-0.616,0.416-1.231,0.844-1.891,1.18
		c-0.775,0.395-1.483,0.112-1.976-0.526c-0.506-0.654-0.505-1.439,0.023-2.068c0.409-0.488,0.966-0.864,1.496-1.235
		c2.214-1.55,4.525-2.942,6.9-4.232c4.015-2.181,8.185-4.011,12.459-5.623c1.588-0.599,1.652-0.849,0.553-2.087
		c-3.617-4.073-8.088-5.939-13.506-4.721c-6.914,1.554-11.756,5.817-14.83,12.092c-2.292,4.681-4.366,9.466-7.301,13.809
		c-0.877,1.298-0.721,1.566,0.801,1.661c4.665,0.293,9.222,1.199,13.748,2.305C968.287,657.658,970.498,657.938,972.727,658.11z"/>
	<path class="st7" d="M1003.563,480.009c0.018,3.436,1.063,6.444,3.335,9.133c3.618,4.283,8.171,7.035,13.76,7.851
		c5.612,0.82,11.324,0.988,16.811,2.626c1.207,0.36,1.489-0.1,1.148-1.277c-1.456-5.034-1.942-10.229-2.568-15.408
		c-0.775-6.411-3.714-11.704-8.978-15.494c-4.628-3.332-9.632-3.713-14.763-1.091c-2.416,1.235-2.429,1.437-0.382,3.113
		c5.282,4.324,10.123,9.08,14.276,14.513c0.452,0.591,0.927,1.178,1.283,1.827c0.452,0.824,0.339,1.63-0.439,2.242
		c-0.8,0.63-1.592,0.473-2.254-0.197c-0.52-0.527-0.945-1.15-1.398-1.741c-4.101-5.358-8.891-10.035-14.136-14.257
		c-2.021-1.627-2.094-1.602-3.5,0.647C1004.295,474.841,1003.46,477.371,1003.563,480.009z"/>
	<path class="st7" d="M553.156,708.029c3.404-0.052,6.549-1.348,9.24-3.666c3.848-3.314,6.518-7.404,7.488-12.447
		c1.105-5.75,1.436-11.645,3.27-17.263c0.425-1.302-0.354-1.373-1.367-1.118c-3.803,0.957-7.677,1.428-11.583,1.74
		c-2.408,0.192-4.843,0.219-7.205,0.845c-5.616,1.488-10.292,4.387-13.342,9.422c-2.788,4.604-2.708,9.373-0.099,14.073
		c0.813,1.464,0.962,1.451,2.151,0.187c0.383-0.407,0.731-0.846,1.103-1.263c4.356-4.88,9.086-9.35,14.432-13.143
		c0.606-0.43,1.219-0.864,1.873-1.212c0.749-0.398,1.496-0.223,2.017,0.413c0.601,0.734,0.595,1.591-0.064,2.279
		c-0.508,0.53-1.157,0.93-1.761,1.363c-5.638,4.036-10.6,8.799-15.094,14.06c-1.397,1.634-1.377,1.681,0.402,2.944
		C547.111,707.014,549.873,708.009,553.156,708.029z"/>
	<path class="st7" d="M787.084,752.532c-4.858,0.25-9.253,1.329-12.95,4.33c-4.581,3.719-5.973,8.601-4.868,14.273
		c0.351,1.801,0.589,1.891,2.482,1.325c5.099-1.525,10.029-3.481,14.741-5.956c1.895-0.996,3.728-2.11,5.582-3.182
		c0.922-0.533,1.84-0.59,2.482,0.325c0.719,1.025,0.367,1.965-0.633,2.625c-1.01,0.666-2.049,1.292-3.1,1.893
		c-5.603,3.205-11.545,5.618-17.682,7.583c-1.701,0.544-1.77,0.724-0.765,2.01c3.366,4.307,7.773,6.405,13.22,5.495
		c6.862-1.146,11.944-5.035,15.327-11.05c2.648-4.707,5.013-9.573,8.313-13.893c0.797-1.043,0.627-1.369-0.76-1.508
		c-4.847-0.488-9.513-1.764-14.161-3.133C791.886,752.954,789.413,752.555,787.084,752.532z"/>
	<path class="st7" d="M803.917,360.708c-2.256-0.047-4.482,0.22-6.614,0.937c-5.383,1.81-10.692,3.861-16.322,4.827
		c-0.938,0.161-1.089,0.543-0.513,1.271c1.271,1.609,2.638,3.153,3.786,4.845c1.987,2.929,3.802,5.973,5.753,8.927
		c3.228,4.887,7.759,7.998,13.41,9.405c6.266,1.56,12.387-1.05,15.619-6.52c1.203-2.035,1.22-2.071-0.845-3.044
		c-5.999-2.829-12.178-5.151-18.698-6.483c-0.73-0.149-1.456-0.315-2.185-0.468c-1.141-0.24-1.949-0.842-1.715-2.1
		c0.241-1.299,1.287-1.443,2.393-1.292c0.645,0.088,1.287,0.207,1.925,0.339c6.601,1.37,12.896,3.638,19.011,6.446
		c2.348,1.078,2.602,0.946,2.636-1.692c0.069-5.368-2.172-9.538-6.719-12.418C811.51,361.579,807.793,360.836,803.917,360.708z"/>
	<path class="st5" d="M610.675,515.5c-6.513,0.318-11.6,3.872-16.037,8.664c-0.763,0.824-0.37,1.242,0.448,1.652
		c3.875,1.942,7.215,4.607,10.256,7.669c2.571,2.588,4.823,5.434,6.906,8.424c1.033,1.482,1.117,1.509,2.14,0.292
		c4.239-5.047,9.044-9.403,14.964-12.41c0.93-0.472,0.901-0.97,0.384-1.741c-2.892-4.316-6.298-8.09-10.979-10.535
		C616.323,516.242,613.721,515.596,610.675,515.5z"/>
	<path class="st7" d="M385.362,559.153c5.333,0.112,9.418-1.29,12.804-4.355c3.411-3.088,4.546-6.948,3.168-11.423
		c-0.671-2.179-0.873-2.262-2.85-1.22c-4.47,2.356-8.662,5.127-12.48,8.448c-0.492,0.428-0.974,0.871-1.489,1.27
		c-0.756,0.584-1.57,0.667-2.271-0.041c-0.784-0.791-0.701-1.695-0.006-2.498c0.486-0.56,1.062-1.046,1.623-1.536
		c3.957-3.449,8.346-6.256,12.937-8.774c1.425-0.781,1.444-0.958,0.282-1.886c-2.521-2.013-5.366-3.038-8.601-2.309
		c-5.755,1.297-9.476,5.021-11.612,10.336c-1.595,3.97-2.502,8.202-4.478,12.039c-0.457,0.887-0.232,1.4,0.883,1.345
		C377.57,558.339,381.842,558.726,385.362,559.153z"/>
	<path class="st2" d="M802.264,582.384c0.167-0.034,0.35-0.069,0.532-0.108c4.103-0.878,8.144-1.954,11.935-3.805
		c1.176-0.574,2.277-1.265,3.16-2.261c0.68-0.767,0.978-1.66,0.472-2.567c-1.101-1.976-3.011-2.967-4.998-3.815
		c-0.383-0.163-0.725,0.088-1.027,0.299c-2.632,1.839-5.665,3.178-7.03,6.484c-0.591,1.43-1.744,2.628-2.646,3.928
		c-0.265,0.382-0.571,0.739-0.809,1.136C801.605,582.089,801.748,582.353,802.264,582.384z"/>
	<path class="st3" d="M700.3,570.194c-0.02-0.088-0.016-0.193-0.064-0.261c-1.587-2.279-3.15-4.574-4.796-6.81
		c-0.293-0.399-0.633-0.026-0.7,0.405c-0.619,3.963-1.877,7.742-3.276,11.483c-0.081,0.217,0.063,0.517,0.102,0.779
		c0.253-0.082,0.542-0.11,0.752-0.254c2.377-1.624,4.808-3.158,7.34-4.53C699.984,570.829,700.31,570.641,700.3,570.194z"/>
	<path class="st3" d="M713.487,589.347c0-0.051,0-0.103,0-0.154c1.849,0,3.699,0.011,5.548-0.01c0.342-0.004,0.798,0.116,0.98-0.319
		c0.183-0.44-0.207-0.634-0.487-0.843c-1.999-1.496-4.02-2.964-5.993-4.493c-0.771-0.597-1.266-0.42-1.865,0.245
		c-1.361,1.511-2.786,2.964-4.182,4.442c-0.249,0.263-0.594,0.554-0.304,0.928c0.127,0.164,0.494,0.193,0.753,0.195
		C709.787,589.354,711.637,589.347,713.487,589.347z"/>
	<path class="st2" d="M554.276,570.394c-0.469,0.056-2.263,1.269-2.989,2.023c-1.52,1.579-1.524,2.84,0.072,4.287
		c1.472,1.335,3.265,2.13,5.101,2.824c0.799,0.302,1.03-0.085,0.836-0.801c-0.681-2.514-1.383-5.023-2.086-7.532
		C555.081,570.731,554.868,570.328,554.276,570.394z"/>
	<path class="st2" d="M557.63,554.631c0.366-1.308-0.271-1.463-1.161-1.155c-0.853,0.295-2.384,0.013-2.07,1.575
		c0.42,2.094,1.116,4.133,1.714,6.19c0.076,0.262,0.3,0.509,0.62,0.414c0.096-0.029,0.146-0.31,0.166-0.482
		C557.153,558.951,557.397,556.728,557.63,554.631z"/>
	<path class="st0" d="M977.275,522.95c-0.094-0.203-0.014-0.614-0.441-0.507c-0.627,0.156-0.822,0.68-0.837,1.242
		c-0.002,0.093,0.459,0.295,0.694,0.278C977.302,523.919,977.349,523.46,977.275,522.95z"/>
	<path class="st0" d="M761.289,712.553c0.068-0.476-0.191-0.697-0.593-0.718c-0.506-0.026-0.555,0.37-0.505,0.729
		c0.042,0.296-0.075,0.801,0.459,0.74C761.029,713.262,761.224,712.914,761.289,712.553z"/>
	<path class="st0" d="M786.479,432.899c0.045-0.314,0.022-0.636-0.361-0.575c-0.436,0.069-0.964,0.181-0.977,0.757
		c-0.005,0.223,0.259,0.633,0.423,0.645C786.096,433.764,786.286,433.29,786.479,432.899z"/>
	<path class="st0" d="M840.306,412.151c-0.07-0.021-0.141-0.057-0.211-0.054c-0.026,0.001-0.047,0.096-0.07,0.149
		c0.07,0.018,0.141,0.053,0.208,0.047C840.262,412.291,840.282,412.201,840.306,412.151z"/>
	<path class="st2" d="M727.707,115.258c0.819,1.138,0.871,2.322,0.493,3.676c-2.824,10.117-5.591,20.249-8.382,30.375
		c-0.123,0.446-0.261,0.897-0.471,1.306c-0.382,0.746-1.028,1.081-1.852,0.871c-0.829-0.212-1.254-0.84-1.196-1.659
		c0.053-0.734,0.25-1.465,0.447-2.18c2.661-9.679,5.347-19.352,7.983-29.038c0.32-1.174,0.761-2.275,1.299-3.351
		C726.587,115.258,727.147,115.258,727.707,115.258z"/>
	<path class="st0" d="M406.381,309.392c-5.782,0-11.565,0.006-17.347-0.003c-2.493-0.004-3.238-0.383-3.317-1.617
		c-0.086-1.338,0.687-1.749,3.425-1.751c9.513-0.007,19.026-0.003,28.539-0.003c0.56,0,1.123,0.039,1.678-0.01
		c0.715-0.064,1.645,0.357,2.095-0.314c0.515-0.768-0.379-1.341-0.752-1.924c-3.555-5.566-5.911-11.589-7.219-18.064
		c-5.745-28.45,14.12-56.377,42.892-60.242c26.705-3.588,51.057,13.428,56.864,39.732c0.502,2.272,0.502,2.272,2.897,1.721
		c23.665-5.442,46.195,8.802,51.188,32.379c0.308,1.457,0.612,2.94,0.661,4.419c0.075,2.232,0.549,2.212,2.602,2.208
		c3.078-0.005,6.156-0.009,9.233,0.007c0.931,0.005,1.864,0.06,2.793,0.127c0.99,0.072,1.567,0.66,1.549,1.624
		c-0.018,0.967-0.693,1.485-1.605,1.651c-0.362,0.066-0.743,0.028-1.116,0.028c-4.477-0.004-8.953,0.008-13.43-0.022
		c-2.89-0.019-3.091-0.247-3.237-3.22c-0.865-17.606-13.047-32.192-30.224-36.113c-6.397-1.46-12.771-1.22-19.077,0.615
		c-0.626,0.182-1.239,0.412-1.867,0.583c-2.116,0.577-2.67,0.234-3.094-1.882c-0.348-1.735-0.631-3.487-1.057-5.202
		c-4.669-18.781-20.811-33.028-40.042-35.37c-25.33-3.085-48.335,13.798-52.73,38.985c-2.377,13.623,0.75,26.095,9.065,37.217
		c0.74,0.99,2.147,1.844,1.443,3.366c-0.776,1.678-2.437,1.038-3.745,1.052C417.76,309.425,412.07,309.392,406.381,309.392z"/>
	<path class="st0" d="M876.385,242.969c-1.958,0-3.916,0.005-5.874-0.001c-2.831-0.008-3.508-0.324-3.533-1.636
		c-0.027-1.417,0.755-1.805,3.704-1.811c3.17-0.006,6.34,0.011,9.511-0.006c2.431-0.013,2.431-0.031,2.308-2.435
		c-1.135-22.256,15.176-41.957,37.384-44.635c17.845-2.152,31.839,4.651,42.055,19.366c0.106,0.153,0.195,0.317,0.297,0.473
		c1.14,1.74,1.151,1.767,3.029,0.995c4.11-1.689,8.361-2.454,12.818-2.369c14.045,0.267,26.657,11.107,28.956,24.987
		c0.6,3.622,0.6,3.622,4.186,3.623c2.984,0.001,5.968-0.007,8.951,0.007c0.649,0.003,1.32-0.008,1.94,0.15
		c0.8,0.204,1.231,0.821,1.202,1.67c-0.029,0.846-0.462,1.417-1.318,1.546c-0.549,0.082-1.115,0.073-1.673,0.073
		c-4.382,0.005-8.765,0.017-13.147-0.002c-2.85-0.013-2.893-0.076-3.145-2.969c-1.078-12.366-8.867-21.834-20.427-24.799
		c-6.516-1.672-12.751-0.8-18.741,2.154c-2.849,1.405-2.94,1.35-4.535-1.369c-7.457-12.704-18.554-19.66-33.248-20.474
		c-19.185-1.062-36.971,13.196-40.437,32.082c-0.748,4.076-0.745,8.154-0.448,12.257c0.204,2.817-0.034,3.086-2.822,3.117
		C881.047,242.99,878.716,242.969,876.385,242.969z"/>
	<path class="st0" d="M438.901,343.675c-16.412,0-32.825,0-49.237-0.001c-0.746,0-1.493,0.009-2.238-0.018
		c-1.092-0.039-1.781-0.559-1.757-1.714c0.024-1.148,0.75-1.63,1.819-1.689c0.465-0.026,0.932-0.026,1.398-0.026
		c33.478-0.001,66.955-0.002,100.433,0.003c0.651,0,1.315-0.016,1.95,0.1c0.961,0.177,1.433,0.849,1.358,1.811
		c-0.065,0.836-0.562,1.39-1.415,1.467c-0.833,0.075-1.676,0.064-2.514,0.064C472.098,343.676,455.5,343.675,438.901,343.675z"/>
	<path class="st2" d="M725.504,184.411c-0.015,9.54-7.508,17.029-17.047,17.037c-9.638,0.008-17.182-7.603-17.122-17.274
		c0.059-9.464,7.681-16.943,17.216-16.896C718.08,167.326,725.519,174.844,725.504,184.411z"/>
	<path class="st2" d="M708.32,170.62c-7.521,0.05-13.672,6.265-13.643,13.785c0.029,7.64,6.33,13.801,14.01,13.698
		c7.504-0.101,13.542-6.341,13.475-13.925C722.094,176.653,715.884,170.57,708.32,170.62z"/>
	<path class="st0" d="M517.232,376.562c10.064,0,20.129-0.002,30.193,0.004c0.837,0.001,1.68,0.002,2.508,0.105
		c0.841,0.105,1.332,0.693,1.371,1.518c0.046,0.962-0.476,1.603-1.437,1.749c-0.639,0.097-1.3,0.071-1.952,0.071
		c-20.408,0.003-40.817,0.004-61.225-0.001c-0.743,0-1.508,0.038-2.225-0.115c-0.799-0.171-1.274-0.79-1.244-1.633
		c0.03-0.822,0.472-1.448,1.31-1.573c0.823-0.122,1.67-0.119,2.506-0.12C497.103,376.559,507.167,376.562,517.232,376.562z"/>
	<path class="st0" d="M991.894,284.691c9.219,0,18.439-0.001,27.658,0.002c0.744,0,1.49,0.002,2.232,0.054
		c0.836,0.059,1.403,0.492,1.518,1.358c0.13,0.976-0.339,1.657-1.245,1.908c-0.613,0.17-1.29,0.15-1.938,0.15
		c-18.998,0.007-37.995,0.007-56.993-0.002c-0.644,0-1.319-0.015-1.925-0.201c-0.774-0.238-1.216-0.862-1.153-1.711
		c0.063-0.847,0.55-1.384,1.397-1.475c0.738-0.08,1.486-0.079,2.23-0.079C973.082,284.689,982.488,284.691,991.894,284.691z"/>
	<path class="st2" d="M775.054,204.371c-0.497-0.124-1.132-0.27-1.76-0.442c-9.694-2.665-19.388-5.332-29.08-8.006
		c-0.715-0.197-1.453-0.375-2.11-0.703c-0.74-0.369-1.041-1.066-0.771-1.885c0.264-0.803,0.907-1.207,1.716-1.154
		c0.64,0.042,1.272,0.264,1.9,0.436c9.784,2.69,19.567,5.384,29.35,8.078c0.538,0.148,1.092,0.258,1.61,0.457
		c0.96,0.369,1.623,1.004,1.292,2.126C776.915,204.248,776.112,204.456,775.054,204.371z"/>
	<path class="st2" d="M641.615,164.304c0.651,0.155,1.291,0.286,1.919,0.459c9.778,2.693,19.555,5.39,29.331,8.092
		c0.626,0.173,1.268,0.329,1.85,0.604c0.77,0.364,1.028,1.059,0.826,1.872c-0.212,0.854-0.878,1.219-1.679,1.165
		c-0.734-0.05-1.464-0.258-2.18-0.454c-9.689-2.665-19.376-5.339-29.063-8.013c-0.627-0.173-1.265-0.323-1.87-0.556
		c-0.903-0.347-1.312-1.036-1.059-1.991C639.95,164.502,640.693,164.223,641.615,164.304z"/>
	<path class="st2" d="M688.436,250.986c0.094-0.393,0.227-1.031,0.399-1.658c2.686-9.781,5.376-19.56,8.07-29.339
		c0.173-0.627,0.335-1.265,0.6-1.855c0.346-0.771,1.018-1.098,1.837-0.895c0.954,0.237,1.358,0.955,1.27,1.893
		c-0.051,0.549-0.255,1.085-0.404,1.624c-2.744,9.958-5.49,19.915-8.235,29.873c-0.124,0.448-0.207,0.912-0.378,1.341
		c-0.348,0.873-0.98,1.362-1.959,1.156C688.618,252.913,688.348,252.172,688.436,250.986z"/>
	<path class="st2" d="M727.648,216.672c0.854-0.027,1.374,0.465,1.767,1.146c0.651,1.128,1.301,2.257,1.946,3.389
		c2.855,5.013,5.708,10.027,8.561,15.04c0.276,0.485,0.56,0.967,0.816,1.462c0.851,1.647,0.781,2.614-0.213,3.17
		c-0.962,0.538-1.79,0.116-2.763-1.582c-3.658-6.376-7.289-12.768-10.919-19.16c-0.273-0.481-0.56-0.988-0.672-1.518
		C725.956,217.597,726.665,216.728,727.648,216.672z"/>
	<path class="st2" d="M674.333,202.067c0.897,0.002,1.412,0.371,1.685,1.018c0.229,0.543,0.185,1.148-0.242,1.563
		c-0.459,0.446-1.002,0.828-1.561,1.147c-6.298,3.594-12.602,7.177-18.916,10.743c-0.557,0.314-1.17,0.6-1.79,0.712
		c-0.677,0.122-1.274-0.201-1.604-0.86c-0.331-0.659-0.221-1.297,0.285-1.789c0.392-0.382,0.88-0.681,1.36-0.955
		c6.378-3.641,12.76-7.275,19.147-10.899C673.256,202.43,673.794,202.02,674.333,202.067z"/>
	<path class="st2" d="M765.129,152.973c0.015,0.999-0.686,1.475-1.424,1.898c-2.341,1.342-4.693,2.665-7.038,4
		c-3.882,2.209-7.762,4.422-11.643,6.631c-0.485,0.276-0.979,0.537-1.464,0.813c-1.04,0.591-2.013,0.581-2.631-0.545
		c-0.562-1.023,0.012-1.77,0.872-2.328c0.39-0.253,0.801-0.473,1.205-0.704c5.983-3.408,11.965-6.818,17.953-10.219
		c0.645-0.366,1.292-0.774,1.991-0.989C764.097,151.176,765.105,151.899,765.129,152.973z"/>
	<path class="st2" d="M688.988,152.079c-0.645,0.008-1.149-0.518-1.538-1.185c-0.795-1.365-1.574-2.74-2.356-4.113
		c-2.76-4.846-5.518-9.693-8.277-14.54c-0.276-0.485-0.58-0.956-0.821-1.458c-0.698-1.456-0.579-2.488,0.39-2.918
		c1.386-0.615,2.042,0.334,2.621,1.351c3.727,6.542,7.404,13.113,11.203,19.612C691.305,150.699,690.315,152.027,688.988,152.079z"
		/>
	<path class="st0" d="M670.404,443.335c-3.807-0.049-6.64-2.983-6.593-6.828c0.046-3.784,3.037-6.712,6.8-6.656
		c3.704,0.055,6.721,3.162,6.664,6.864C677.217,440.443,674.166,443.383,670.404,443.335z"/>
	<path class="st0" d="M764.662,516.671c-3.044-0.039-5.49-2.503-5.477-5.519c0.013-2.99,2.513-5.485,5.526-5.516
		c3.152-0.032,5.635,2.516,5.56,5.705C770.199,514.416,767.784,516.71,764.662,516.671z"/>
	<path class="st0" d="M726.116,789.139c-0.058,5.463-4.422,9.687-9.9,9.58c-5.326-0.104-9.497-4.387-9.485-9.739
		c0.012-5.446,4.398-9.828,9.782-9.775C721.901,779.258,726.173,783.678,726.116,789.139z"/>
	<path class="st0" d="M373.106,498.838c-5.486,0.002-9.802-4.291-9.777-9.725c0.025-5.432,4.383-9.687,9.864-9.63
		c5.342,0.055,9.61,4.287,9.66,9.578C382.903,494.471,378.552,498.836,373.106,498.838z"/>
	<path class="st0" d="M486.259,687.355c5.405,0.027,9.763,4.458,9.701,9.862c-0.062,5.384-4.556,9.73-9.954,9.628
		c-5.264-0.1-9.554-4.469-9.565-9.742C476.429,691.706,480.838,687.328,486.259,687.355z"/>
	<path class="st0" d="M584.937,749.537c0.043-5.438,4.438-9.727,9.884-9.644c5.27,0.08,9.593,4.429,9.632,9.689
		c0.039,5.304-4.491,9.842-9.815,9.83C589.259,759.399,584.895,754.957,584.937,749.537z"/>
	<path class="st0" d="M963.441,426.223c5.404-0.012,9.828,4.399,9.805,9.775c-0.024,5.393-4.442,9.71-9.884,9.659
		c-5.369-0.051-9.558-4.239-9.602-9.6C953.716,430.586,958,426.235,963.441,426.223z"/>
	<path class="st0" d="M901.612,614.942c5.513-0.023,9.749,4.202,9.736,9.713c-0.013,5.497-4.286,9.72-9.791,9.676
		c-5.321-0.043-9.583-4.269-9.668-9.588C891.803,619.377,896.18,614.965,901.612,614.942z"/>
	<path class="st0" d="M772.497,705.985c-0.057-5.444,4.243-9.787,9.71-9.809c5.45-0.021,9.83,4.318,9.813,9.724
		c-0.017,5.261-4.289,9.601-9.589,9.742C777.103,715.785,772.553,711.362,772.497,705.985z"/>
	<path class="st0" d="M853.891,318.848c5.456-0.018,9.794,4.3,9.778,9.733c-0.016,5.413-4.43,9.764-9.843,9.701
		c-5.321-0.062-9.587-4.321-9.642-9.625C844.129,323.222,848.44,318.865,853.891,318.848z"/>
	<path class="st0" d="M459.907,512.197c-5.307-0.048-9.591-4.316-9.642-9.607c-0.052-5.383,4.352-9.794,9.768-9.785
		c5.49,0.009,9.739,4.283,9.716,9.773C469.727,508.048,465.43,512.247,459.907,512.197z"/>
	<path class="st0" d="M870.259,416.472c-5.421,0.027-9.84-4.345-9.832-9.727c0.008-5.353,4.522-9.821,9.857-9.758
		c5.286,0.063,9.6,4.368,9.664,9.644C880.013,412.067,875.703,416.445,870.259,416.472z"/>
	<path class="st0" d="M1050.667,416.312c0.062,5.463-4.199,9.817-9.655,9.865c-5.416,0.048-9.831-4.319-9.829-9.721
		c0.002-5.323,4.214-9.587,9.549-9.666C1046.285,406.708,1050.604,410.848,1050.667,416.312z"/>
	<path class="st0" d="M1011.974,675.243c-0.019-5.457,4.294-9.773,9.754-9.761c5.398,0.012,9.799,4.464,9.73,9.842
		c-0.068,5.266-4.406,9.596-9.667,9.649C1016.389,685.029,1011.993,680.672,1011.974,675.243z"/>
	<path class="st0" d="M791.103,835.454c0.02,5.475-4.252,9.743-9.746,9.737c-5.448-0.006-9.746-4.36-9.688-9.815
		c0.056-5.309,4.321-9.58,9.628-9.642C786.701,825.671,791.084,830.015,791.103,835.454z"/>
	<path class="st0" d="M467.026,562.994c5.47-0.044,9.832,4.228,9.865,9.661c0.032,5.358-4.436,9.831-9.794,9.805
		c-5.276-0.026-9.614-4.308-9.719-9.594C457.271,567.465,461.597,563.038,467.026,562.994z"/>
	<path class="st0" d="M755.73,423.325c-0.027-5.399,4.362-9.777,9.787-9.763c5.304,0.014,9.615,4.259,9.713,9.564
		c0.099,5.36-4.296,9.892-9.653,9.957C760.217,433.146,755.757,428.726,755.73,423.325z"/>
	<path class="st0" d="M984.588,537.342c0.017-5.455,4.344-9.693,9.85-9.646c5.303,0.045,9.604,4.323,9.667,9.613
		c0.063,5.313-4.417,9.837-9.772,9.87C988.968,547.211,984.571,542.772,984.588,537.342z"/>
	<path class="st0" d="M802.67,423.081c0.006,0.067,0.012,0.134,0.018,0.201c-0.216-0.056-0.2-0.105,0.047-0.147L802.67,423.081z"/>
</g>
</svg>
